<?xml version="1.0" encoding="utf-8" standalone="no"?>
<!DOCTYPE svg PUBLIC "-//W3C//DTD SVG 1.1//EN"
  "http://www.w3.org/Graphics/SVG/1.1/DTD/svg11.dtd">
<svg xmlns:xlink="http://www.w3.org/1999/xlink" width="720pt" height="432pt" viewBox="0 0 720 432" xmlns="http://www.w3.org/2000/svg" version="1.1">
 <metadata>
  <rdf:RDF xmlns:dc="http://purl.org/dc/elements/1.1/" xmlns:cc="http://creativecommons.org/ns#" xmlns:rdf="http://www.w3.org/1999/02/22-rdf-syntax-ns#">
   <cc:Work>
    <dc:type rdf:resource="http://purl.org/dc/dcmitype/StillImage"/>
    <dc:date>2024-04-28T17:18:14.875715</dc:date>
    <dc:format>image/svg+xml</dc:format>
    <dc:creator>
     <cc:Agent>
      <dc:title>Matplotlib v3.7.5, https://matplotlib.org/</dc:title>
     </cc:Agent>
    </dc:creator>
   </cc:Work>
  </rdf:RDF>
 </metadata>
 <defs>
  <style type="text/css">*{stroke-linejoin: round; stroke-linecap: butt}</style>
 </defs>
 <g id="figure_1">
  <g id="patch_1">
   <path d="M 0 432 
L 720 432 
L 720 0 
L 0 0 
L 0 432 
z
" style="fill: none"/>
  </g>
  <g id="axes_1">
   <g id="patch_2">
    <path d="M 90 378 
L 648 378 
L 648 51.84 
L 90 51.84 
L 90 378 
z
" style="fill: none"/>
   </g>
   <g id="PolyCollection_1">
    <defs>
     <path id="m87f3c0606e" d="M 119.326754 -54.000018 
L 119.326754 -54 
L 121.824967 -54 
L 124.32318 -54 
L 126.821392 -54 
L 129.319605 -54 
L 131.817818 -54 
L 134.316031 -54 
L 136.814243 -54 
L 139.312456 -54 
L 141.810669 -54 
L 144.308881 -54 
L 146.807094 -54 
L 149.305307 -54 
L 151.80352 -54 
L 154.301732 -54 
L 156.799945 -54 
L 159.298158 -54 
L 161.79637 -54 
L 164.294583 -54 
L 166.792796 -54 
L 169.291008 -54 
L 171.789221 -54 
L 174.287434 -54 
L 176.785647 -54 
L 179.283859 -54 
L 181.782072 -54 
L 184.280285 -54 
L 186.778497 -54 
L 189.27671 -54 
L 191.774923 -54 
L 194.273136 -54 
L 196.771348 -54 
L 199.269561 -54 
L 201.767774 -54 
L 204.265986 -54 
L 206.764199 -54 
L 209.262412 -54 
L 211.760624 -54 
L 214.258837 -54 
L 216.75705 -54 
L 219.255263 -54 
L 221.753475 -54 
L 224.251688 -54 
L 226.749901 -54 
L 229.248113 -54 
L 231.746326 -54 
L 234.244539 -54 
L 236.742751 -54 
L 239.240964 -54 
L 241.739177 -54 
L 244.23739 -54 
L 246.735602 -54 
L 249.233815 -54 
L 251.732028 -54 
L 254.23024 -54 
L 256.728453 -54 
L 259.226666 -54 
L 261.724879 -54 
L 264.223091 -54 
L 266.721304 -54 
L 269.219517 -54 
L 271.717729 -54 
L 274.215942 -54 
L 276.714155 -54 
L 279.212367 -54 
L 281.71058 -54 
L 284.208793 -54 
L 286.707006 -54 
L 289.205218 -54 
L 291.703431 -54 
L 294.201644 -54 
L 296.699856 -54 
L 299.198069 -54 
L 301.696282 -54 
L 304.194495 -54 
L 306.692707 -54 
L 309.19092 -54 
L 311.689133 -54 
L 314.187345 -54 
L 316.685558 -54 
L 319.183771 -54 
L 321.681983 -54 
L 324.180196 -54 
L 326.678409 -54 
L 329.176622 -54 
L 331.674834 -54 
L 334.173047 -54 
L 336.67126 -54 
L 339.169472 -54 
L 341.667685 -54 
L 344.165898 -54 
L 346.664111 -54 
L 349.162323 -54 
L 351.660536 -54 
L 354.158749 -54 
L 356.656961 -54 
L 359.155174 -54 
L 361.653387 -54 
L 364.151599 -54 
L 366.649812 -54 
L 369.148025 -54 
L 371.646238 -54 
L 374.14445 -54 
L 376.642663 -54 
L 379.140876 -54 
L 381.639088 -54 
L 384.137301 -54 
L 386.635514 -54 
L 389.133727 -54 
L 391.631939 -54 
L 394.130152 -54 
L 396.628365 -54 
L 399.126577 -54 
L 401.62479 -54 
L 404.123003 -54 
L 406.621215 -54 
L 409.119428 -54 
L 411.617641 -54 
L 414.115854 -54 
L 416.614066 -54 
L 419.112279 -54 
L 421.610492 -54 
L 424.108704 -54 
L 426.606917 -54 
L 429.10513 -54 
L 431.603342 -54 
L 434.101555 -54 
L 436.599768 -54 
L 439.097981 -54 
L 441.596193 -54 
L 444.094406 -54 
L 446.592619 -54 
L 449.090831 -54 
L 451.589044 -54 
L 454.087257 -54 
L 456.58547 -54 
L 459.083682 -54 
L 461.581895 -54 
L 464.080108 -54 
L 466.57832 -54 
L 469.076533 -54 
L 471.574746 -54 
L 474.072958 -54 
L 476.571171 -54 
L 479.069384 -54 
L 481.567597 -54 
L 484.065809 -54 
L 486.564022 -54 
L 489.062235 -54 
L 491.560447 -54 
L 494.05866 -54 
L 496.556873 -54 
L 499.055086 -54 
L 501.553298 -54 
L 504.051511 -54 
L 506.549724 -54 
L 509.047936 -54 
L 511.546149 -54 
L 514.044362 -54 
L 516.542574 -54 
L 519.040787 -54 
L 521.539 -54 
L 524.037213 -54 
L 526.535425 -54 
L 529.033638 -54 
L 531.531851 -54 
L 534.030063 -54 
L 536.528276 -54 
L 539.026489 -54 
L 541.524702 -54 
L 544.022914 -54 
L 546.521127 -54 
L 549.01934 -54 
L 551.517552 -54 
L 554.015765 -54 
L 556.513978 -54 
L 559.01219 -54 
L 561.510403 -54 
L 564.008616 -54 
L 566.506829 -54 
L 569.005041 -54 
L 571.503254 -54 
L 574.001467 -54 
L 576.499679 -54 
L 578.997892 -54 
L 581.496105 -54 
L 583.994317 -54 
L 586.49253 -54 
L 588.990743 -54 
L 591.488956 -54 
L 593.987168 -54 
L 596.485381 -54 
L 598.983594 -54 
L 601.481806 -54 
L 603.980019 -54 
L 606.478232 -54 
L 608.976445 -54 
L 611.474657 -54 
L 613.97287 -54 
L 616.471083 -54 
L 616.471083 -54.000018 
L 616.471083 -54.000018 
L 613.97287 -54.000281 
L 611.474657 -54.001243 
L 608.976445 -54.001761 
L 606.478232 -54.001639 
L 603.980019 -54.001958 
L 601.481806 -54.002469 
L 598.983594 -54.004926 
L 596.485381 -54.00716 
L 593.987168 -54.008424 
L 591.488956 -54.010713 
L 588.990743 -54.012025 
L 586.49253 -54.012445 
L 583.994317 -54.012935 
L 581.496105 -54.012731 
L 578.997892 -54.015466 
L 576.499679 -54.021978 
L 574.001467 -54.029214 
L 571.503254 -54.035842 
L 569.005041 -54.052676 
L 566.506829 -54.0767 
L 564.008616 -54.08987 
L 561.510403 -54.094262 
L 559.01219 -54.115929 
L 556.513978 -54.158971 
L 554.015765 -54.194484 
L 551.517552 -54.224485 
L 549.01934 -54.285917 
L 546.521127 -54.362364 
L 544.022914 -54.441613 
L 541.524702 -54.541908 
L 539.026489 -54.65333 
L 536.528276 -54.799933 
L 534.030063 -54.975602 
L 531.531851 -55.159385 
L 529.033638 -55.336789 
L 526.535425 -55.577963 
L 524.037213 -55.885502 
L 521.539 -56.244718 
L 519.040787 -56.683645 
L 516.542574 -57.244426 
L 514.044362 -57.868072 
L 511.546149 -58.474969 
L 509.047936 -59.157899 
L 506.549724 -59.937334 
L 504.051511 -60.886751 
L 501.553298 -62.066219 
L 499.055086 -63.285685 
L 496.556873 -64.606841 
L 494.05866 -66.198393 
L 491.560447 -68.085197 
L 489.062235 -70.138407 
L 486.564022 -72.386259 
L 484.065809 -74.787136 
L 481.567597 -77.386302 
L 479.069384 -80.285704 
L 476.571171 -83.468484 
L 474.072958 -87.1191 
L 471.574746 -91.2328 
L 469.076533 -95.46039 
L 466.57832 -99.888818 
L 464.080108 -104.885762 
L 461.581895 -110.244616 
L 459.083682 -115.798289 
L 456.58547 -122.013229 
L 454.087257 -128.803358 
L 451.589044 -135.939202 
L 449.090831 -143.129327 
L 446.592619 -150.941369 
L 444.094406 -159.1389 
L 441.596193 -167.239208 
L 439.097981 -175.473884 
L 436.599768 -184.299208 
L 434.101555 -193.755556 
L 431.603342 -203.726086 
L 429.10513 -213.583758 
L 426.606917 -223.339845 
L 424.108704 -233.037835 
L 421.610492 -242.656804 
L 419.112279 -252.117076 
L 416.614066 -261.340342 
L 414.115854 -271.038194 
L 411.617641 -280.25327 
L 409.119428 -288.976839 
L 406.621215 -297.285558 
L 404.123003 -305.056473 
L 401.62479 -312.411006 
L 399.126577 -319.404956 
L 396.628365 -325.949031 
L 394.130152 -331.947684 
L 391.631939 -336.889811 
L 389.133727 -341.164502 
L 386.635514 -344.737976 
L 384.137301 -347.282736 
L 381.639088 -349.336214 
L 379.140876 -350.793922 
L 376.642663 -351.245288 
L 374.14445 -350.509571 
L 371.646238 -348.42963 
L 369.148025 -345.880918 
L 366.649812 -343.723759 
L 364.151599 -340.321495 
L 361.653387 -334.989297 
L 359.155174 -328.992807 
L 356.656961 -322.455523 
L 354.158749 -315.295097 
L 351.660536 -308.180861 
L 349.162323 -300.70166 
L 346.664111 -292.484348 
L 344.165898 -283.313519 
L 341.667685 -273.690547 
L 339.169472 -264.595276 
L 336.67126 -255.532271 
L 334.173047 -246.109396 
L 331.674834 -236.191974 
L 329.176622 -226.226912 
L 326.678409 -216.268906 
L 324.180196 -206.409116 
L 321.681983 -197.403658 
L 319.183771 -188.675108 
L 316.685558 -179.318185 
L 314.187345 -170.086851 
L 311.689133 -161.793925 
L 309.19092 -153.868297 
L 306.692707 -146.073995 
L 304.194495 -138.534464 
L 301.696282 -131.486105 
L 299.198069 -124.953899 
L 296.699856 -118.565968 
L 294.201644 -112.430519 
L 291.703431 -106.987346 
L 289.205218 -101.837857 
L 286.707006 -97.049217 
L 284.208793 -92.733385 
L 281.71058 -88.493842 
L 279.212367 -84.752228 
L 276.714155 -81.560607 
L 274.215942 -78.453095 
L 271.717729 -75.511173 
L 269.219517 -73.045094 
L 266.721304 -70.880305 
L 264.223091 -68.824358 
L 261.724879 -66.963833 
L 259.226666 -65.276323 
L 256.728453 -63.781407 
L 254.23024 -62.525961 
L 251.732028 -61.442566 
L 249.233815 -60.406456 
L 246.735602 -59.478743 
L 244.23739 -58.632398 
L 241.739177 -57.869858 
L 239.240964 -57.269464 
L 236.742751 -56.816614 
L 234.244539 -56.415953 
L 231.746326 -56.034329 
L 229.248113 -55.703258 
L 226.749901 -55.399819 
L 224.251688 -55.171631 
L 221.753475 -55.006644 
L 219.255263 -54.851086 
L 216.75705 -54.704735 
L 214.258837 -54.585518 
L 211.760624 -54.483107 
L 209.262412 -54.392737 
L 206.764199 -54.322476 
L 204.265986 -54.263395 
L 201.767774 -54.214883 
L 199.269561 -54.179825 
L 196.771348 -54.152009 
L 194.273136 -54.124993 
L 191.774923 -54.101032 
L 189.27671 -54.081489 
L 186.778497 -54.062143 
L 184.280285 -54.047778 
L 181.782072 -54.03738 
L 179.283859 -54.026484 
L 176.785647 -54.019242 
L 174.287434 -54.013934 
L 171.789221 -54.01118 
L 169.291008 -54.011154 
L 166.792796 -54.009535 
L 164.294583 -54.008708 
L 161.79637 -54.008668 
L 159.298158 -54.005275 
L 156.799945 -54.003018 
L 154.301732 -54.003429 
L 151.80352 -54.001837 
L 149.305307 -54.0009 
L 146.807094 -54.002922 
L 144.308881 -54.004884 
L 141.810669 -54.004049 
L 139.312456 -54.001976 
L 136.814243 -54.000428 
L 134.316031 -54.000033 
L 131.817818 -54.000062 
L 129.319605 -54.000574 
L 126.821392 -54.001565 
L 124.32318 -54.001233 
L 121.824967 -54.000281 
L 119.326754 -54.000018 
z
" style="stroke: #ff7f50"/>
    </defs>
    <g clip-path="url(#p838602faa3)">
     <use xlink:href="#m87f3c0606e" x="0" y="432" style="fill: #ff7f50; fill-opacity: 0.18; stroke: #ff7f50"/>
    </g>
   </g>
   <g id="PolyCollection_2">
    <path d="M 115.363636 377.999982 
L 115.363636 378 
L 117.912746 378 
L 120.461855 378 
L 123.010964 378 
L 125.560073 378 
L 128.109182 378 
L 130.658291 378 
L 133.207401 378 
L 135.75651 378 
L 138.305619 378 
L 140.854728 378 
L 143.403837 378 
L 145.952947 378 
L 148.502056 378 
L 151.051165 378 
L 153.600274 378 
L 156.149383 378 
L 158.698492 378 
L 161.247602 378 
L 163.796711 378 
L 166.34582 378 
L 168.894929 378 
L 171.444038 378 
L 173.993148 378 
L 176.542257 378 
L 179.091366 378 
L 181.640475 378 
L 184.189584 378 
L 186.738693 378 
L 189.287803 378 
L 191.836912 378 
L 194.386021 378 
L 196.93513 378 
L 199.484239 378 
L 202.033349 378 
L 204.582458 378 
L 207.131567 378 
L 209.680676 378 
L 212.229785 378 
L 214.778894 378 
L 217.328004 378 
L 219.877113 378 
L 222.426222 378 
L 224.975331 378 
L 227.52444 378 
L 230.07355 378 
L 232.622659 378 
L 235.171768 378 
L 237.720877 378 
L 240.269986 378 
L 242.819095 378 
L 245.368205 378 
L 247.917314 378 
L 250.466423 378 
L 253.015532 378 
L 255.564641 378 
L 258.113751 378 
L 260.66286 378 
L 263.211969 378 
L 265.761078 378 
L 268.310187 378 
L 270.859296 378 
L 273.408406 378 
L 275.957515 378 
L 278.506624 378 
L 281.055733 378 
L 283.604842 378 
L 286.153952 378 
L 288.703061 378 
L 291.25217 378 
L 293.801279 378 
L 296.350388 378 
L 298.899497 378 
L 301.448607 378 
L 303.997716 378 
L 306.546825 378 
L 309.095934 378 
L 311.645043 378 
L 314.194153 378 
L 316.743262 378 
L 319.292371 378 
L 321.84148 378 
L 324.390589 378 
L 326.939698 378 
L 329.488808 378 
L 332.037917 378 
L 334.587026 378 
L 337.136135 378 
L 339.685244 378 
L 342.234354 378 
L 344.783463 378 
L 347.332572 378 
L 349.881681 378 
L 352.43079 378 
L 354.979899 378 
L 357.529009 378 
L 360.078118 378 
L 362.627227 378 
L 365.176336 378 
L 367.725445 378 
L 370.274555 378 
L 372.823664 378 
L 375.372773 378 
L 377.921882 378 
L 380.470991 378 
L 383.020101 378 
L 385.56921 378 
L 388.118319 378 
L 390.667428 378 
L 393.216537 378 
L 395.765646 378 
L 398.314756 378 
L 400.863865 378 
L 403.412974 378 
L 405.962083 378 
L 408.511192 378 
L 411.060302 378 
L 413.609411 378 
L 416.15852 378 
L 418.707629 378 
L 421.256738 378 
L 423.805847 378 
L 426.354957 378 
L 428.904066 378 
L 431.453175 378 
L 434.002284 378 
L 436.551393 378 
L 439.100503 378 
L 441.649612 378 
L 444.198721 378 
L 446.74783 378 
L 449.296939 378 
L 451.846048 378 
L 454.395158 378 
L 456.944267 378 
L 459.493376 378 
L 462.042485 378 
L 464.591594 378 
L 467.140704 378 
L 469.689813 378 
L 472.238922 378 
L 474.788031 378 
L 477.33714 378 
L 479.886249 378 
L 482.435359 378 
L 484.984468 378 
L 487.533577 378 
L 490.082686 378 
L 492.631795 378 
L 495.180905 378 
L 497.730014 378 
L 500.279123 378 
L 502.828232 378 
L 505.377341 378 
L 507.92645 378 
L 510.47556 378 
L 513.024669 378 
L 515.573778 378 
L 518.122887 378 
L 520.671996 378 
L 523.221106 378 
L 525.770215 378 
L 528.319324 378 
L 530.868433 378 
L 533.417542 378 
L 535.966651 378 
L 538.515761 378 
L 541.06487 378 
L 543.613979 378 
L 546.163088 378 
L 548.712197 378 
L 551.261307 378 
L 553.810416 378 
L 556.359525 378 
L 558.908634 378 
L 561.457743 378 
L 564.006852 378 
L 566.555962 378 
L 569.105071 378 
L 571.65418 378 
L 574.203289 378 
L 576.752398 378 
L 579.301508 378 
L 581.850617 378 
L 584.399726 378 
L 586.948835 378 
L 589.497944 378 
L 592.047053 378 
L 594.596163 378 
L 597.145272 378 
L 599.694381 378 
L 602.24349 378 
L 604.792599 378 
L 607.341709 378 
L 609.890818 378 
L 612.439927 378 
L 614.989036 378 
L 617.538145 378 
L 620.087254 378 
L 622.636364 378 
L 622.636364 377.999978 
L 622.636364 377.999978 
L 620.087254 377.999596 
L 617.538145 377.997526 
L 614.989036 377.994332 
L 612.439927 377.994107 
L 609.890818 377.996023 
L 607.341709 377.996917 
L 604.792599 377.996613 
L 602.24349 377.9963 
L 599.694381 377.994372 
L 597.145272 377.989491 
L 594.596163 377.986997 
L 592.047053 377.984488 
L 589.497944 377.981673 
L 586.948835 377.981192 
L 584.399726 377.979179 
L 581.850617 377.967906 
L 579.301508 377.952451 
L 576.752398 377.941708 
L 574.203289 377.938125 
L 571.65418 377.921389 
L 569.105071 377.888193 
L 566.555962 377.869708 
L 564.006852 377.858671 
L 561.457743 377.822989 
L 558.908634 377.769851 
L 556.359525 377.719118 
L 553.810416 377.657585 
L 551.261307 377.590663 
L 548.712197 377.508011 
L 546.163088 377.405855 
L 543.613979 377.267086 
L 541.06487 377.099204 
L 538.515761 376.932076 
L 535.966651 376.748787 
L 533.417542 376.527217 
L 530.868433 376.198337 
L 528.319324 375.845675 
L 525.770215 375.548313 
L 523.221106 375.16519 
L 520.671996 374.643264 
L 518.122887 374.03857 
L 515.573778 373.418832 
L 513.024669 372.685455 
L 510.47556 371.728694 
L 507.92645 370.674963 
L 505.377341 369.606892 
L 502.828232 368.40382 
L 500.279123 366.92808 
L 497.730014 365.263647 
L 495.180905 363.505508 
L 492.631795 361.694809 
L 490.082686 359.614957 
L 487.533577 357.141461 
L 484.984468 354.458839 
L 482.435359 351.467987 
L 479.886249 348.092693 
L 477.33714 344.438222 
L 474.788031 340.720637 
L 472.238922 336.811153 
L 469.689813 332.225505 
L 467.140704 326.887104 
L 464.591594 321.347743 
L 462.042485 315.752394 
L 459.493376 310.08626 
L 456.944267 303.87306 
L 454.395158 296.995673 
L 451.846048 289.932401 
L 449.296939 282.320946 
L 446.74783 274.276748 
L 444.198721 266.190431 
L 441.649612 257.892475 
L 439.100503 249.407127 
L 436.551393 240.535475 
L 434.002284 231.395155 
L 431.453175 222.040252 
L 428.904066 212.557917 
L 426.354957 202.653497 
L 423.805847 192.997714 
L 421.256738 184.44038 
L 418.707629 175.480003 
L 416.15852 165.77962 
L 413.609411 156.796738 
L 411.060302 148.700224 
L 408.511192 140.346461 
L 405.962083 132.145841 
L 403.412974 124.094191 
L 400.863865 116.981084 
L 398.314756 111.398342 
L 395.765646 106.548557 
L 393.216537 101.485632 
L 390.667428 96.855951 
L 388.118319 93.060448 
L 385.56921 90.008286 
L 383.020101 88.492856 
L 380.470991 88.295518 
L 377.921882 88.401147 
L 375.372773 88.856145 
L 372.823664 90.307479 
L 370.274555 92.924897 
L 367.725445 96.365829 
L 365.176336 100.098884 
L 362.627227 104.640529 
L 360.078118 110.141409 
L 357.529009 115.872029 
L 354.979899 122.369542 
L 352.43079 130.281845 
L 349.881681 138.383848 
L 347.332572 146.470838 
L 344.783463 154.873819 
L 342.234354 163.563707 
L 339.685244 172.434643 
L 337.136135 181.396271 
L 334.587026 190.451622 
L 332.037917 199.981245 
L 329.488808 209.514417 
L 326.939698 218.710289 
L 324.390589 227.799223 
L 321.84148 237.040449 
L 319.292371 246.481638 
L 316.743262 255.633104 
L 314.194153 264.270206 
L 311.645043 272.49478 
L 309.095934 280.348513 
L 306.546825 287.866861 
L 303.997716 295.164295 
L 301.448607 301.825513 
L 298.899497 308.492061 
L 296.350388 314.76048 
L 293.801279 320.395933 
L 291.25217 325.782977 
L 288.703061 330.878368 
L 286.153952 335.237586 
L 283.604842 339.361261 
L 281.055733 343.571797 
L 278.506624 347.378596 
L 275.957515 350.783977 
L 273.408406 353.927801 
L 270.859296 356.710234 
L 268.310187 359.167435 
L 265.761078 361.466901 
L 263.211969 363.468784 
L 260.66286 365.129193 
L 258.113751 366.712664 
L 255.564641 368.284007 
L 253.015532 369.647436 
L 250.466423 370.744971 
L 247.917314 371.669729 
L 245.368205 372.487954 
L 242.819095 373.291188 
L 240.269986 373.978839 
L 237.720877 374.56311 
L 235.171768 375.100122 
L 232.622659 375.57298 
L 230.07355 375.964851 
L 227.52444 376.277175 
L 224.975331 376.544954 
L 222.426222 376.812048 
L 219.877113 377.050542 
L 217.328004 377.215723 
L 214.778894 377.323417 
L 212.229785 377.43288 
L 209.680676 377.526243 
L 207.131567 377.582016 
L 204.582458 377.649605 
L 202.033349 377.72318 
L 199.484239 377.7638 
L 196.93513 377.79224 
L 194.386021 377.830765 
L 191.836912 377.862732 
L 189.287803 377.893124 
L 186.738693 377.911306 
L 184.189584 377.925923 
L 181.640475 377.941512 
L 179.091366 377.957357 
L 176.542257 377.971442 
L 173.993148 377.977202 
L 171.444038 377.9828 
L 168.894929 377.985077 
L 166.34582 377.985531 
L 163.796711 377.988363 
L 161.247602 377.990994 
L 158.698492 377.99156 
L 156.149383 377.991795 
L 153.600274 377.991376 
L 151.051165 377.994375 
L 148.502056 377.998619 
L 145.952947 377.999665 
L 143.403837 377.998894 
L 140.854728 377.998425 
L 138.305619 377.99934 
L 135.75651 377.999878 
L 133.207401 377.999545 
L 130.658291 377.998562 
L 128.109182 377.9986 
L 125.560073 377.999056 
L 123.010964 377.998436 
L 120.461855 377.998809 
L 117.912746 377.99973 
L 115.363636 377.999982 
z
" clip-path="url(#p838602faa3)" style="fill: #008080; fill-opacity: 0.18; stroke-dasharray: 3.7,1.6; stroke-dashoffset: 0; stroke: #008080"/>
   </g>
   <g id="PolyCollection_3">
    <path d="M 147.08751 377.999981 
L 147.08751 378 
L 149.340894 378 
L 151.594279 378 
L 153.847664 378 
L 156.101048 378 
L 158.354433 378 
L 160.607818 378 
L 162.861202 378 
L 165.114587 378 
L 167.367972 378 
L 169.621356 378 
L 171.874741 378 
L 174.128126 378 
L 176.38151 378 
L 178.634895 378 
L 180.888279 378 
L 183.141664 378 
L 185.395049 378 
L 187.648433 378 
L 189.901818 378 
L 192.155203 378 
L 194.408587 378 
L 196.661972 378 
L 198.915357 378 
L 201.168741 378 
L 203.422126 378 
L 205.675511 378 
L 207.928895 378 
L 210.18228 378 
L 212.435664 378 
L 214.689049 378 
L 216.942434 378 
L 219.195818 378 
L 221.449203 378 
L 223.702588 378 
L 225.955972 378 
L 228.209357 378 
L 230.462742 378 
L 232.716126 378 
L 234.969511 378 
L 237.222896 378 
L 239.47628 378 
L 241.729665 378 
L 243.983049 378 
L 246.236434 378 
L 248.489819 378 
L 250.743203 378 
L 252.996588 378 
L 255.249973 378 
L 257.503357 378 
L 259.756742 378 
L 262.010127 378 
L 264.263511 378 
L 266.516896 378 
L 268.770281 378 
L 271.023665 378 
L 273.27705 378 
L 275.530434 378 
L 277.783819 378 
L 280.037204 378 
L 282.290588 378 
L 284.543973 378 
L 286.797358 378 
L 289.050742 378 
L 291.304127 378 
L 293.557512 378 
L 295.810896 378 
L 298.064281 378 
L 300.317666 378 
L 302.57105 378 
L 304.824435 378 
L 307.077819 378 
L 309.331204 378 
L 311.584589 378 
L 313.837973 378 
L 316.091358 378 
L 318.344743 378 
L 320.598127 378 
L 322.851512 378 
L 325.104897 378 
L 327.358281 378 
L 329.611666 378 
L 331.865051 378 
L 334.118435 378 
L 336.37182 378 
L 338.625204 378 
L 340.878589 378 
L 343.131974 378 
L 345.385358 378 
L 347.638743 378 
L 349.892128 378 
L 352.145512 378 
L 354.398897 378 
L 356.652282 378 
L 358.905666 378 
L 361.159051 378 
L 363.412436 378 
L 365.66582 378 
L 367.919205 378 
L 370.172589 378 
L 372.425974 378 
L 374.679359 378 
L 376.932743 378 
L 379.186128 378 
L 381.439513 378 
L 383.692897 378 
L 385.946282 378 
L 388.199667 378 
L 390.453051 378 
L 392.706436 378 
L 394.959821 378 
L 397.213205 378 
L 399.46659 378 
L 401.719974 378 
L 403.973359 378 
L 406.226744 378 
L 408.480128 378 
L 410.733513 378 
L 412.986898 378 
L 415.240282 378 
L 417.493667 378 
L 419.747052 378 
L 422.000436 378 
L 424.253821 378 
L 426.507206 378 
L 428.76059 378 
L 431.013975 378 
L 433.267359 378 
L 435.520744 378 
L 437.774129 378 
L 440.027513 378 
L 442.280898 378 
L 444.534283 378 
L 446.787667 378 
L 449.041052 378 
L 451.294437 378 
L 453.547821 378 
L 455.801206 378 
L 458.054591 378 
L 460.307975 378 
L 462.56136 378 
L 464.814744 378 
L 467.068129 378 
L 469.321514 378 
L 471.574898 378 
L 473.828283 378 
L 476.081668 378 
L 478.335052 378 
L 480.588437 378 
L 482.841822 378 
L 485.095206 378 
L 487.348591 378 
L 489.601976 378 
L 491.85536 378 
L 494.108745 378 
L 496.362129 378 
L 498.615514 378 
L 500.868899 378 
L 503.122283 378 
L 505.375668 378 
L 507.629053 378 
L 509.882437 378 
L 512.135822 378 
L 514.389207 378 
L 516.642591 378 
L 518.895976 378 
L 521.149361 378 
L 523.402745 378 
L 525.65613 378 
L 527.909514 378 
L 530.162899 378 
L 532.416284 378 
L 534.669668 378 
L 536.923053 378 
L 539.176438 378 
L 541.429822 378 
L 543.683207 378 
L 545.936592 378 
L 548.189976 378 
L 550.443361 378 
L 552.696746 378 
L 554.95013 378 
L 557.203515 378 
L 559.456899 378 
L 561.710284 378 
L 563.963669 378 
L 566.217053 378 
L 568.470438 378 
L 570.723823 378 
L 572.977207 378 
L 575.230592 378 
L 577.483977 378 
L 579.737361 378 
L 581.990746 378 
L 584.244131 378 
L 586.497515 378 
L 588.7509 378 
L 591.004284 378 
L 593.257669 378 
L 595.511054 378 
L 595.511054 377.999979 
L 595.511054 377.999979 
L 593.257669 377.999689 
L 591.004284 377.998301 
L 588.7509 377.996211 
L 586.497515 377.995931 
L 584.244131 377.997044 
L 581.990746 377.995767 
L 579.737361 377.992484 
L 577.483977 377.989255 
L 575.230592 377.982312 
L 572.977207 377.975999 
L 570.723823 377.971995 
L 568.470438 377.965447 
L 566.217053 377.958411 
L 563.963669 377.951829 
L 561.710284 377.936927 
L 559.456899 377.914514 
L 557.203515 377.893989 
L 554.95013 377.883189 
L 552.696746 377.864822 
L 550.443361 377.828282 
L 548.189976 377.793159 
L 545.936592 377.754454 
L 543.683207 377.697481 
L 541.429822 377.633576 
L 539.176438 377.582424 
L 536.923053 377.503201 
L 534.669668 377.372397 
L 532.416284 377.239568 
L 530.162899 377.105539 
L 527.909514 376.962065 
L 525.65613 376.806723 
L 523.402745 376.568483 
L 521.149361 376.245138 
L 518.895976 375.875233 
L 516.642591 375.520993 
L 514.389207 375.163902 
L 512.135822 374.695724 
L 509.882437 374.067826 
L 507.629053 373.355566 
L 505.375668 372.728175 
L 503.122283 372.068123 
L 500.868899 371.194073 
L 498.615514 370.1604 
L 496.362129 368.98105 
L 494.108745 367.690269 
L 491.85536 366.298207 
L 489.601976 364.662263 
L 487.348591 362.730832 
L 485.095206 360.617761 
L 482.841822 358.313834 
L 480.588437 355.874925 
L 478.335052 353.348299 
L 476.081668 350.446157 
L 473.828283 346.993495 
L 471.574898 343.495753 
L 469.321514 339.834812 
L 467.068129 335.560728 
L 464.814744 330.938156 
L 462.56136 326.055129 
L 460.307975 320.974251 
L 458.054591 315.524997 
L 455.801206 309.599305 
L 453.547821 303.262659 
L 451.294437 296.319744 
L 449.041052 289.318808 
L 446.787667 282.272503 
L 444.534283 274.568999 
L 442.280898 266.535391 
L 440.027513 258.402071 
L 437.774129 249.592506 
L 435.520744 240.557335 
L 433.267359 231.552106 
L 431.013975 222.525899 
L 428.76059 213.225585 
L 426.507206 203.303794 
L 424.253821 193.570274 
L 422.000436 184.047616 
L 419.747052 174.406546 
L 417.493667 164.962942 
L 415.240282 155.860423 
L 412.986898 147.093264 
L 410.733513 138.358975 
L 408.480128 129.150145 
L 406.226744 120.272977 
L 403.973359 112.625025 
L 401.719974 105.450423 
L 399.46659 97.849402 
L 397.213205 90.56904 
L 394.959821 84.541745 
L 392.706436 80.313108 
L 390.453051 77.432852 
L 388.199667 74.657801 
L 385.946282 71.674192 
L 383.692897 69.101163 
L 381.439513 67.609725 
L 379.186128 67.371429 
L 376.932743 68.511477 
L 374.679359 70.177339 
L 372.425974 71.776048 
L 370.172589 73.887389 
L 367.919205 76.872779 
L 365.66582 81.079234 
L 363.412436 86.500917 
L 361.159051 92.321908 
L 358.905666 98.182107 
L 356.652282 104.477861 
L 354.398897 111.78808 
L 352.145512 119.83899 
L 349.892128 127.915611 
L 347.638743 136.363662 
L 345.385358 145.266098 
L 343.131974 154.573363 
L 340.878589 164.340786 
L 338.625204 173.773741 
L 336.37182 182.929518 
L 334.118435 192.244195 
L 331.865051 201.905461 
L 329.611666 211.672161 
L 327.358281 221.242872 
L 325.104897 230.659036 
L 322.851512 239.947483 
L 320.598127 249.212025 
L 318.344743 257.810341 
L 316.091358 265.686611 
L 313.837973 273.354882 
L 311.584589 281.047828 
L 309.331204 288.662127 
L 307.077819 295.808595 
L 304.824435 302.554245 
L 302.57105 309.035324 
L 300.317666 315.01878 
L 298.064281 320.458585 
L 295.810896 325.333434 
L 293.557512 330.025744 
L 291.304127 334.846705 
L 289.050742 339.159703 
L 286.797358 342.884649 
L 284.543973 346.479264 
L 282.290588 349.831292 
L 280.037204 352.812376 
L 277.783819 355.579559 
L 275.530434 358.153333 
L 273.27705 360.450054 
L 271.023665 362.501966 
L 268.770281 364.334648 
L 266.516896 365.9173 
L 264.263511 367.419231 
L 262.010127 368.831549 
L 259.756742 370.038829 
L 257.503357 371.100445 
L 255.249973 372.026967 
L 252.996588 372.860911 
L 250.743203 373.567834 
L 248.489819 374.14827 
L 246.236434 374.647369 
L 243.983049 375.132845 
L 241.729665 375.564175 
L 239.47628 375.895211 
L 237.222896 376.20125 
L 234.969511 376.478751 
L 232.716126 376.763364 
L 230.462742 376.991168 
L 228.209357 377.136521 
L 225.955972 377.260319 
L 223.702588 377.421061 
L 221.449203 377.546418 
L 219.195818 377.612189 
L 216.942434 377.655073 
L 214.689049 377.691071 
L 212.435664 377.727934 
L 210.18228 377.769264 
L 207.928895 377.812625 
L 205.675511 377.839928 
L 203.422126 377.862764 
L 201.168741 377.8975 
L 198.915357 377.926942 
L 196.661972 377.939567 
L 194.408587 377.952024 
L 192.155203 377.964757 
L 189.901818 377.971152 
L 187.648433 377.976727 
L 185.395049 377.980008 
L 183.141664 377.979642 
L 180.888279 377.980457 
L 178.634895 377.984125 
L 176.38151 377.989822 
L 174.128126 377.993466 
L 171.874741 377.993526 
L 169.621356 377.995805 
L 167.367972 377.998802 
L 165.114587 377.999865 
L 162.861202 377.999994 
L 160.607818 377.999993 
L 158.354433 377.999865 
L 156.101048 377.999162 
L 153.847664 377.998283 
L 151.594279 377.998837 
L 149.340894 377.999739 
L 147.08751 377.999981 
z
" clip-path="url(#p838602faa3)" style="fill: #dda0dd; fill-opacity: 0.18; stroke-dasharray: 1,1.65; stroke-dashoffset: 0; stroke: #dda0dd"/>
   </g>
   <g id="matplotlib.axis_1">
    <g id="xtick_1">
     <g id="line2d_1">
      <defs>
       <path id="m89de70c52f" d="M 0 0 
L 0 3.5 
" style="stroke: #d3d3d3; stroke-width: 0.8"/>
      </defs>
      <g>
       <use xlink:href="#m89de70c52f" x="103.777371" y="378" style="fill: #d3d3d3; stroke: #d3d3d3; stroke-width: 0.8"/>
      </g>
     </g>
     <g id="text_1">
      <!-- −0.6 -->
      <g style="fill: #d3d3d3" transform="translate(79.494559 400.196875) scale(0.2 -0.2)">
       <defs>
        <path id="DejaVuSans-2212" d="M 678 2272 
L 4684 2272 
L 4684 1741 
L 678 1741 
L 678 2272 
z
" transform="scale(0.015625)"/>
        <path id="DejaVuSans-30" d="M 2034 4250 
Q 1547 4250 1301 3770 
Q 1056 3291 1056 2328 
Q 1056 1369 1301 889 
Q 1547 409 2034 409 
Q 2525 409 2770 889 
Q 3016 1369 3016 2328 
Q 3016 3291 2770 3770 
Q 2525 4250 2034 4250 
z
M 2034 4750 
Q 2819 4750 3233 4129 
Q 3647 3509 3647 2328 
Q 3647 1150 3233 529 
Q 2819 -91 2034 -91 
Q 1250 -91 836 529 
Q 422 1150 422 2328 
Q 422 3509 836 4129 
Q 1250 4750 2034 4750 
z
" transform="scale(0.015625)"/>
        <path id="DejaVuSans-2e" d="M 684 794 
L 1344 794 
L 1344 0 
L 684 0 
L 684 794 
z
" transform="scale(0.015625)"/>
        <path id="DejaVuSans-36" d="M 2113 2584 
Q 1688 2584 1439 2293 
Q 1191 2003 1191 1497 
Q 1191 994 1439 701 
Q 1688 409 2113 409 
Q 2538 409 2786 701 
Q 3034 994 3034 1497 
Q 3034 2003 2786 2293 
Q 2538 2584 2113 2584 
z
M 3366 4563 
L 3366 3988 
Q 3128 4100 2886 4159 
Q 2644 4219 2406 4219 
Q 1781 4219 1451 3797 
Q 1122 3375 1075 2522 
Q 1259 2794 1537 2939 
Q 1816 3084 2150 3084 
Q 2853 3084 3261 2657 
Q 3669 2231 3669 1497 
Q 3669 778 3244 343 
Q 2819 -91 2113 -91 
Q 1303 -91 875 529 
Q 447 1150 447 2328 
Q 447 3434 972 4092 
Q 1497 4750 2381 4750 
Q 2619 4750 2861 4703 
Q 3103 4656 3366 4563 
z
" transform="scale(0.015625)"/>
       </defs>
       <use xlink:href="#DejaVuSans-2212"/>
       <use xlink:href="#DejaVuSans-30" x="83.789062"/>
       <use xlink:href="#DejaVuSans-2e" x="147.412109"/>
       <use xlink:href="#DejaVuSans-36" x="179.199219"/>
      </g>
     </g>
    </g>
    <g id="xtick_2">
     <g id="line2d_2">
      <g>
       <use xlink:href="#m89de70c52f" x="195.67068" y="378" style="fill: #d3d3d3; stroke: #d3d3d3; stroke-width: 0.8"/>
      </g>
     </g>
     <g id="text_2">
      <!-- −0.4 -->
      <g style="fill: #d3d3d3" transform="translate(171.387867 400.196875) scale(0.2 -0.2)">
       <defs>
        <path id="DejaVuSans-34" d="M 2419 4116 
L 825 1625 
L 2419 1625 
L 2419 4116 
z
M 2253 4666 
L 3047 4666 
L 3047 1625 
L 3713 1625 
L 3713 1100 
L 3047 1100 
L 3047 0 
L 2419 0 
L 2419 1100 
L 313 1100 
L 313 1709 
L 2253 4666 
z
" transform="scale(0.015625)"/>
       </defs>
       <use xlink:href="#DejaVuSans-2212"/>
       <use xlink:href="#DejaVuSans-30" x="83.789062"/>
       <use xlink:href="#DejaVuSans-2e" x="147.412109"/>
       <use xlink:href="#DejaVuSans-34" x="179.199219"/>
      </g>
     </g>
    </g>
    <g id="xtick_3">
     <g id="line2d_3">
      <g>
       <use xlink:href="#m89de70c52f" x="287.563988" y="378" style="fill: #d3d3d3; stroke: #d3d3d3; stroke-width: 0.8"/>
      </g>
     </g>
     <g id="text_3">
      <!-- −0.2 -->
      <g style="fill: #d3d3d3" transform="translate(263.281175 400.196875) scale(0.2 -0.2)">
       <defs>
        <path id="DejaVuSans-32" d="M 1228 531 
L 3431 531 
L 3431 0 
L 469 0 
L 469 531 
Q 828 903 1448 1529 
Q 2069 2156 2228 2338 
Q 2531 2678 2651 2914 
Q 2772 3150 2772 3378 
Q 2772 3750 2511 3984 
Q 2250 4219 1831 4219 
Q 1534 4219 1204 4116 
Q 875 4013 500 3803 
L 500 4441 
Q 881 4594 1212 4672 
Q 1544 4750 1819 4750 
Q 2544 4750 2975 4387 
Q 3406 4025 3406 3419 
Q 3406 3131 3298 2873 
Q 3191 2616 2906 2266 
Q 2828 2175 2409 1742 
Q 1991 1309 1228 531 
z
" transform="scale(0.015625)"/>
       </defs>
       <use xlink:href="#DejaVuSans-2212"/>
       <use xlink:href="#DejaVuSans-30" x="83.789062"/>
       <use xlink:href="#DejaVuSans-2e" x="147.412109"/>
       <use xlink:href="#DejaVuSans-32" x="179.199219"/>
      </g>
     </g>
    </g>
    <g id="xtick_4">
     <g id="line2d_4">
      <g>
       <use xlink:href="#m89de70c52f" x="379.457296" y="378" style="fill: #d3d3d3; stroke: #d3d3d3; stroke-width: 0.8"/>
      </g>
     </g>
     <g id="text_4">
      <!-- 0.0 -->
      <g style="fill: #d3d3d3" transform="translate(363.554171 400.196875) scale(0.2 -0.2)">
       <use xlink:href="#DejaVuSans-30"/>
       <use xlink:href="#DejaVuSans-2e" x="63.623047"/>
       <use xlink:href="#DejaVuSans-30" x="95.410156"/>
      </g>
     </g>
    </g>
    <g id="xtick_5">
     <g id="line2d_5">
      <g>
       <use xlink:href="#m89de70c52f" x="471.350604" y="378" style="fill: #d3d3d3; stroke: #d3d3d3; stroke-width: 0.8"/>
      </g>
     </g>
     <g id="text_5">
      <!-- 0.2 -->
      <g style="fill: #d3d3d3" transform="translate(455.447479 400.196875) scale(0.2 -0.2)">
       <use xlink:href="#DejaVuSans-30"/>
       <use xlink:href="#DejaVuSans-2e" x="63.623047"/>
       <use xlink:href="#DejaVuSans-32" x="95.410156"/>
      </g>
     </g>
    </g>
    <g id="xtick_6">
     <g id="line2d_6">
      <g>
       <use xlink:href="#m89de70c52f" x="563.243912" y="378" style="fill: #d3d3d3; stroke: #d3d3d3; stroke-width: 0.8"/>
      </g>
     </g>
     <g id="text_6">
      <!-- 0.4 -->
      <g style="fill: #d3d3d3" transform="translate(547.340787 400.196875) scale(0.2 -0.2)">
       <use xlink:href="#DejaVuSans-30"/>
       <use xlink:href="#DejaVuSans-2e" x="63.623047"/>
       <use xlink:href="#DejaVuSans-34" x="95.410156"/>
      </g>
     </g>
    </g>
    <g id="text_7">
     <!-- Weight($w_{ij}$) -->
     <g style="fill: #d3d3d3" transform="translate(291.16 429.63625) scale(0.28 -0.28)">
      <defs>
       <path id="DejaVuSans-57" d="M 213 4666 
L 850 4666 
L 1831 722 
L 2809 4666 
L 3519 4666 
L 4500 722 
L 5478 4666 
L 6119 4666 
L 4947 0 
L 4153 0 
L 3169 4050 
L 2175 0 
L 1381 0 
L 213 4666 
z
" transform="scale(0.015625)"/>
       <path id="DejaVuSans-65" d="M 3597 1894 
L 3597 1613 
L 953 1613 
Q 991 1019 1311 708 
Q 1631 397 2203 397 
Q 2534 397 2845 478 
Q 3156 559 3463 722 
L 3463 178 
Q 3153 47 2828 -22 
Q 2503 -91 2169 -91 
Q 1331 -91 842 396 
Q 353 884 353 1716 
Q 353 2575 817 3079 
Q 1281 3584 2069 3584 
Q 2775 3584 3186 3129 
Q 3597 2675 3597 1894 
z
M 3022 2063 
Q 3016 2534 2758 2815 
Q 2500 3097 2075 3097 
Q 1594 3097 1305 2825 
Q 1016 2553 972 2059 
L 3022 2063 
z
" transform="scale(0.015625)"/>
       <path id="DejaVuSans-69" d="M 603 3500 
L 1178 3500 
L 1178 0 
L 603 0 
L 603 3500 
z
M 603 4863 
L 1178 4863 
L 1178 4134 
L 603 4134 
L 603 4863 
z
" transform="scale(0.015625)"/>
       <path id="DejaVuSans-67" d="M 2906 1791 
Q 2906 2416 2648 2759 
Q 2391 3103 1925 3103 
Q 1463 3103 1205 2759 
Q 947 2416 947 1791 
Q 947 1169 1205 825 
Q 1463 481 1925 481 
Q 2391 481 2648 825 
Q 2906 1169 2906 1791 
z
M 3481 434 
Q 3481 -459 3084 -895 
Q 2688 -1331 1869 -1331 
Q 1566 -1331 1297 -1286 
Q 1028 -1241 775 -1147 
L 775 -588 
Q 1028 -725 1275 -790 
Q 1522 -856 1778 -856 
Q 2344 -856 2625 -561 
Q 2906 -266 2906 331 
L 2906 616 
Q 2728 306 2450 153 
Q 2172 0 1784 0 
Q 1141 0 747 490 
Q 353 981 353 1791 
Q 353 2603 747 3093 
Q 1141 3584 1784 3584 
Q 2172 3584 2450 3431 
Q 2728 3278 2906 2969 
L 2906 3500 
L 3481 3500 
L 3481 434 
z
" transform="scale(0.015625)"/>
       <path id="DejaVuSans-68" d="M 3513 2113 
L 3513 0 
L 2938 0 
L 2938 2094 
Q 2938 2591 2744 2837 
Q 2550 3084 2163 3084 
Q 1697 3084 1428 2787 
Q 1159 2491 1159 1978 
L 1159 0 
L 581 0 
L 581 4863 
L 1159 4863 
L 1159 2956 
Q 1366 3272 1645 3428 
Q 1925 3584 2291 3584 
Q 2894 3584 3203 3211 
Q 3513 2838 3513 2113 
z
" transform="scale(0.015625)"/>
       <path id="DejaVuSans-74" d="M 1172 4494 
L 1172 3500 
L 2356 3500 
L 2356 3053 
L 1172 3053 
L 1172 1153 
Q 1172 725 1289 603 
Q 1406 481 1766 481 
L 2356 481 
L 2356 0 
L 1766 0 
Q 1100 0 847 248 
Q 594 497 594 1153 
L 594 3053 
L 172 3053 
L 172 3500 
L 594 3500 
L 594 4494 
L 1172 4494 
z
" transform="scale(0.015625)"/>
       <path id="DejaVuSans-28" d="M 1984 4856 
Q 1566 4138 1362 3434 
Q 1159 2731 1159 2009 
Q 1159 1288 1364 580 
Q 1569 -128 1984 -844 
L 1484 -844 
Q 1016 -109 783 600 
Q 550 1309 550 2009 
Q 550 2706 781 3412 
Q 1013 4119 1484 4856 
L 1984 4856 
z
" transform="scale(0.015625)"/>
       <path id="DejaVuSans-Oblique-77" d="M 544 3500 
L 1113 3500 
L 1259 684 
L 2566 3500 
L 3231 3500 
L 3425 684 
L 4666 3500 
L 5241 3500 
L 3641 0 
L 2969 0 
L 2797 2900 
L 1459 0 
L 781 0 
L 544 3500 
z
" transform="scale(0.015625)"/>
       <path id="DejaVuSans-Oblique-69" d="M 1172 4863 
L 1747 4863 
L 1606 4134 
L 1031 4134 
L 1172 4863 
z
M 909 3500 
L 1484 3500 
L 800 0 
L 225 0 
L 909 3500 
z
" transform="scale(0.015625)"/>
       <path id="DejaVuSans-Oblique-6a" d="M 928 3500 
L 1503 3500 
L 813 -63 
L 809 -78 
Q 694 -675 544 -897 
Q 403 -1106 132 -1218 
Q -138 -1331 -506 -1331 
L -722 -1331 
L -628 -844 
L -481 -844 
Q -144 -844 -1 -703 
Q 141 -563 238 -63 
L 928 3500 
z
M 1197 4863 
L 1772 4863 
L 1631 4134 
L 1056 4134 
L 1197 4863 
z
" transform="scale(0.015625)"/>
       <path id="DejaVuSans-29" d="M 513 4856 
L 1013 4856 
Q 1481 4119 1714 3412 
Q 1947 2706 1947 2009 
Q 1947 1309 1714 600 
Q 1481 -109 1013 -844 
L 513 -844 
Q 928 -128 1133 580 
Q 1338 1288 1338 2009 
Q 1338 2731 1133 3434 
Q 928 4138 513 4856 
z
" transform="scale(0.015625)"/>
      </defs>
      <use xlink:href="#DejaVuSans-57" transform="translate(0 0.015625)"/>
      <use xlink:href="#DejaVuSans-65" transform="translate(98.876953 0.015625)"/>
      <use xlink:href="#DejaVuSans-69" transform="translate(160.400391 0.015625)"/>
      <use xlink:href="#DejaVuSans-67" transform="translate(188.183594 0.015625)"/>
      <use xlink:href="#DejaVuSans-68" transform="translate(251.660156 0.015625)"/>
      <use xlink:href="#DejaVuSans-74" transform="translate(315.039062 0.015625)"/>
      <use xlink:href="#DejaVuSans-28" transform="translate(354.248047 0.015625)"/>
      <use xlink:href="#DejaVuSans-Oblique-77" transform="translate(393.261719 0.015625)"/>
      <use xlink:href="#DejaVuSans-Oblique-69" transform="translate(475.048828 -16.390625) scale(0.7)"/>
      <use xlink:href="#DejaVuSans-Oblique-6a" transform="translate(494.49707 -16.390625) scale(0.7)"/>
      <use xlink:href="#DejaVuSans-29" transform="translate(516.679688 0.015625)"/>
     </g>
    </g>
   </g>
   <g id="matplotlib.axis_2">
    <g id="ytick_1">
     <g id="line2d_7">
      <defs>
       <path id="maa0eaebba1" d="M 0 0 
L -3.5 0 
" style="stroke: #d3d3d3; stroke-width: 0.8"/>
      </defs>
      <g>
       <use xlink:href="#maa0eaebba1" x="90" y="378" style="fill: #d3d3d3; stroke: #d3d3d3; stroke-width: 0.8"/>
      </g>
     </g>
     <g id="text_8">
      <!-- 0.0 -->
      <g style="fill: #d3d3d3" transform="translate(51.19375 385.598437) scale(0.2 -0.2)">
       <use xlink:href="#DejaVuSans-30"/>
       <use xlink:href="#DejaVuSans-2e" x="63.623047"/>
       <use xlink:href="#DejaVuSans-30" x="95.410156"/>
      </g>
     </g>
    </g>
    <g id="ytick_2">
     <g id="line2d_8">
      <g>
       <use xlink:href="#maa0eaebba1" x="90" y="340.570527" style="fill: #d3d3d3; stroke: #d3d3d3; stroke-width: 0.8"/>
      </g>
     </g>
     <g id="text_9">
      <!-- 0.5 -->
      <g style="fill: #d3d3d3" transform="translate(51.19375 348.168965) scale(0.2 -0.2)">
       <defs>
        <path id="DejaVuSans-35" d="M 691 4666 
L 3169 4666 
L 3169 4134 
L 1269 4134 
L 1269 2991 
Q 1406 3038 1543 3061 
Q 1681 3084 1819 3084 
Q 2600 3084 3056 2656 
Q 3513 2228 3513 1497 
Q 3513 744 3044 326 
Q 2575 -91 1722 -91 
Q 1428 -91 1123 -41 
Q 819 9 494 109 
L 494 744 
Q 775 591 1075 516 
Q 1375 441 1709 441 
Q 2250 441 2565 725 
Q 2881 1009 2881 1497 
Q 2881 1984 2565 2268 
Q 2250 2553 1709 2553 
Q 1456 2553 1204 2497 
Q 953 2441 691 2322 
L 691 4666 
z
" transform="scale(0.015625)"/>
       </defs>
       <use xlink:href="#DejaVuSans-30"/>
       <use xlink:href="#DejaVuSans-2e" x="63.623047"/>
       <use xlink:href="#DejaVuSans-35" x="95.410156"/>
      </g>
     </g>
    </g>
    <g id="ytick_3">
     <g id="line2d_9">
      <g>
       <use xlink:href="#maa0eaebba1" x="90" y="303.141055" style="fill: #d3d3d3; stroke: #d3d3d3; stroke-width: 0.8"/>
      </g>
     </g>
     <g id="text_10">
      <!-- 1.0 -->
      <g style="fill: #d3d3d3" transform="translate(51.19375 310.739492) scale(0.2 -0.2)">
       <defs>
        <path id="DejaVuSans-31" d="M 794 531 
L 1825 531 
L 1825 4091 
L 703 3866 
L 703 4441 
L 1819 4666 
L 2450 4666 
L 2450 531 
L 3481 531 
L 3481 0 
L 794 0 
L 794 531 
z
" transform="scale(0.015625)"/>
       </defs>
       <use xlink:href="#DejaVuSans-31"/>
       <use xlink:href="#DejaVuSans-2e" x="63.623047"/>
       <use xlink:href="#DejaVuSans-30" x="95.410156"/>
      </g>
     </g>
    </g>
    <g id="ytick_4">
     <g id="line2d_10">
      <g>
       <use xlink:href="#maa0eaebba1" x="90" y="265.711582" style="fill: #d3d3d3; stroke: #d3d3d3; stroke-width: 0.8"/>
      </g>
     </g>
     <g id="text_11">
      <!-- 1.5 -->
      <g style="fill: #d3d3d3" transform="translate(51.19375 273.31002) scale(0.2 -0.2)">
       <use xlink:href="#DejaVuSans-31"/>
       <use xlink:href="#DejaVuSans-2e" x="63.623047"/>
       <use xlink:href="#DejaVuSans-35" x="95.410156"/>
      </g>
     </g>
    </g>
    <g id="ytick_5">
     <g id="line2d_11">
      <g>
       <use xlink:href="#maa0eaebba1" x="90" y="228.28211" style="fill: #d3d3d3; stroke: #d3d3d3; stroke-width: 0.8"/>
      </g>
     </g>
     <g id="text_12">
      <!-- 2.0 -->
      <g style="fill: #d3d3d3" transform="translate(51.19375 235.880547) scale(0.2 -0.2)">
       <use xlink:href="#DejaVuSans-32"/>
       <use xlink:href="#DejaVuSans-2e" x="63.623047"/>
       <use xlink:href="#DejaVuSans-30" x="95.410156"/>
      </g>
     </g>
    </g>
    <g id="ytick_6">
     <g id="line2d_12">
      <g>
       <use xlink:href="#maa0eaebba1" x="90" y="190.852637" style="fill: #d3d3d3; stroke: #d3d3d3; stroke-width: 0.8"/>
      </g>
     </g>
     <g id="text_13">
      <!-- 2.5 -->
      <g style="fill: #d3d3d3" transform="translate(51.19375 198.451074) scale(0.2 -0.2)">
       <use xlink:href="#DejaVuSans-32"/>
       <use xlink:href="#DejaVuSans-2e" x="63.623047"/>
       <use xlink:href="#DejaVuSans-35" x="95.410156"/>
      </g>
     </g>
    </g>
    <g id="ytick_7">
     <g id="line2d_13">
      <g>
       <use xlink:href="#maa0eaebba1" x="90" y="153.423164" style="fill: #d3d3d3; stroke: #d3d3d3; stroke-width: 0.8"/>
      </g>
     </g>
     <g id="text_14">
      <!-- 3.0 -->
      <g style="fill: #d3d3d3" transform="translate(51.19375 161.021602) scale(0.2 -0.2)">
       <defs>
        <path id="DejaVuSans-33" d="M 2597 2516 
Q 3050 2419 3304 2112 
Q 3559 1806 3559 1356 
Q 3559 666 3084 287 
Q 2609 -91 1734 -91 
Q 1441 -91 1130 -33 
Q 819 25 488 141 
L 488 750 
Q 750 597 1062 519 
Q 1375 441 1716 441 
Q 2309 441 2620 675 
Q 2931 909 2931 1356 
Q 2931 1769 2642 2001 
Q 2353 2234 1838 2234 
L 1294 2234 
L 1294 2753 
L 1863 2753 
Q 2328 2753 2575 2939 
Q 2822 3125 2822 3475 
Q 2822 3834 2567 4026 
Q 2313 4219 1838 4219 
Q 1578 4219 1281 4162 
Q 984 4106 628 3988 
L 628 4550 
Q 988 4650 1302 4700 
Q 1616 4750 1894 4750 
Q 2613 4750 3031 4423 
Q 3450 4097 3450 3541 
Q 3450 3153 3228 2886 
Q 3006 2619 2597 2516 
z
" transform="scale(0.015625)"/>
       </defs>
       <use xlink:href="#DejaVuSans-33"/>
       <use xlink:href="#DejaVuSans-2e" x="63.623047"/>
       <use xlink:href="#DejaVuSans-30" x="95.410156"/>
      </g>
     </g>
    </g>
    <g id="ytick_8">
     <g id="line2d_14">
      <g>
       <use xlink:href="#maa0eaebba1" x="90" y="115.993692" style="fill: #d3d3d3; stroke: #d3d3d3; stroke-width: 0.8"/>
      </g>
     </g>
     <g id="text_15">
      <!-- 3.5 -->
      <g style="fill: #d3d3d3" transform="translate(51.19375 123.592129) scale(0.2 -0.2)">
       <use xlink:href="#DejaVuSans-33"/>
       <use xlink:href="#DejaVuSans-2e" x="63.623047"/>
       <use xlink:href="#DejaVuSans-35" x="95.410156"/>
      </g>
     </g>
    </g>
    <g id="ytick_9">
     <g id="line2d_15">
      <g>
       <use xlink:href="#maa0eaebba1" x="90" y="78.564219" style="fill: #d3d3d3; stroke: #d3d3d3; stroke-width: 0.8"/>
      </g>
     </g>
     <g id="text_16">
      <!-- 4.0 -->
      <g style="fill: #d3d3d3" transform="translate(51.19375 86.162657) scale(0.2 -0.2)">
       <use xlink:href="#DejaVuSans-34"/>
       <use xlink:href="#DejaVuSans-2e" x="63.623047"/>
       <use xlink:href="#DejaVuSans-30" x="95.410156"/>
      </g>
     </g>
    </g>
    <g id="text_17">
     <!-- PDF -->
     <g style="fill: #d3d3d3" transform="translate(41.370625 242.19375) rotate(-90) scale(0.28 -0.28)">
      <defs>
       <path id="DejaVuSans-50" d="M 1259 4147 
L 1259 2394 
L 2053 2394 
Q 2494 2394 2734 2622 
Q 2975 2850 2975 3272 
Q 2975 3691 2734 3919 
Q 2494 4147 2053 4147 
L 1259 4147 
z
M 628 4666 
L 2053 4666 
Q 2838 4666 3239 4311 
Q 3641 3956 3641 3272 
Q 3641 2581 3239 2228 
Q 2838 1875 2053 1875 
L 1259 1875 
L 1259 0 
L 628 0 
L 628 4666 
z
" transform="scale(0.015625)"/>
       <path id="DejaVuSans-44" d="M 1259 4147 
L 1259 519 
L 2022 519 
Q 2988 519 3436 956 
Q 3884 1394 3884 2338 
Q 3884 3275 3436 3711 
Q 2988 4147 2022 4147 
L 1259 4147 
z
M 628 4666 
L 1925 4666 
Q 3281 4666 3915 4102 
Q 4550 3538 4550 2338 
Q 4550 1131 3912 565 
Q 3275 0 1925 0 
L 628 0 
L 628 4666 
z
" transform="scale(0.015625)"/>
       <path id="DejaVuSans-46" d="M 628 4666 
L 3309 4666 
L 3309 4134 
L 1259 4134 
L 1259 2759 
L 3109 2759 
L 3109 2228 
L 1259 2228 
L 1259 0 
L 628 0 
L 628 4666 
z
" transform="scale(0.015625)"/>
      </defs>
      <use xlink:href="#DejaVuSans-50"/>
      <use xlink:href="#DejaVuSans-44" x="60.302734"/>
      <use xlink:href="#DejaVuSans-46" x="137.304688"/>
     </g>
    </g>
   </g>
   <g id="line2d_16">
    <path d="M 119.326754 377.999982 
L 191.774923 377.898968 
L 206.764199 377.677524 
L 216.75705 377.295265 
L 226.749901 376.600181 
L 234.244539 375.584047 
L 239.240964 374.730536 
L 241.739177 374.130142 
L 246.735602 372.521257 
L 251.732028 370.557434 
L 254.23024 369.474039 
L 256.728453 368.218593 
L 259.226666 366.723677 
L 261.724879 365.036167 
L 264.223091 363.175642 
L 269.219517 358.954906 
L 271.717729 356.488827 
L 276.714155 350.439393 
L 279.212367 347.247772 
L 281.71058 343.506158 
L 286.707006 334.950783 
L 289.205218 330.162143 
L 291.703431 325.012654 
L 294.201644 319.569481 
L 299.198069 307.046101 
L 301.696282 300.513895 
L 304.194495 293.465536 
L 309.19092 278.131703 
L 314.187345 261.913149 
L 321.681983 234.596342 
L 324.180196 225.590884 
L 336.67126 176.467729 
L 341.667685 158.309453 
L 344.165898 148.686481 
L 346.664111 139.515652 
L 349.162323 131.29834 
L 351.660536 123.819139 
L 356.656961 109.544477 
L 359.155174 103.007193 
L 361.653387 97.010703 
L 364.151599 91.678505 
L 366.649812 88.276241 
L 369.148025 86.119082 
L 371.646238 83.57037 
L 374.14445 81.490429 
L 376.642663 80.754712 
L 379.140876 81.206078 
L 381.639088 82.663786 
L 384.137301 84.717264 
L 386.635514 87.262024 
L 389.133727 90.835498 
L 391.631939 95.110189 
L 394.130152 100.052316 
L 396.628365 106.050969 
L 399.126577 112.595044 
L 401.62479 119.588994 
L 404.123003 126.943527 
L 406.621215 134.714442 
L 409.119428 143.023161 
L 411.617641 151.74673 
L 414.115854 160.961806 
L 416.614066 170.659658 
L 421.610492 189.343196 
L 429.10513 218.416242 
L 436.599768 247.700792 
L 439.097981 256.526116 
L 446.592619 281.058631 
L 449.090831 288.870673 
L 454.087257 303.196642 
L 456.58547 309.986771 
L 459.083682 316.201711 
L 464.080108 327.114238 
L 466.57832 332.111182 
L 471.574746 340.7672 
L 474.072958 344.8809 
L 476.571171 348.531516 
L 479.069384 351.714296 
L 481.567597 354.613698 
L 484.065809 357.212864 
L 489.062235 361.861593 
L 491.560447 363.914803 
L 494.05866 365.801607 
L 496.556873 367.393159 
L 501.553298 369.933781 
L 504.051511 371.113249 
L 506.549724 372.062666 
L 511.546149 373.525031 
L 519.040787 375.316355 
L 524.037213 376.114498 
L 529.033638 376.663211 
L 541.524702 377.458092 
L 551.517552 377.775515 
L 576.499679 377.978022 
L 616.471083 377.999982 
L 616.471083 377.999982 
" clip-path="url(#p838602faa3)" style="fill: none; stroke: #ff7f50; stroke-opacity: 0.8; stroke-width: 2; stroke-linecap: square"/>
   </g>
   <g id="line2d_17">
    <path d="M 115.363636 377.999982 
L 189.287803 377.893124 
L 207.131567 377.582016 
L 214.778894 377.323417 
L 219.877113 377.050542 
L 227.52444 376.277175 
L 232.622659 375.57298 
L 237.720877 374.56311 
L 242.819095 373.291188 
L 247.917314 371.669729 
L 250.466423 370.744971 
L 253.015532 369.647436 
L 255.564641 368.284007 
L 263.211969 363.468784 
L 265.761078 361.466901 
L 268.310187 359.167435 
L 270.859296 356.710234 
L 273.408406 353.927801 
L 275.957515 350.783977 
L 278.506624 347.378596 
L 281.055733 343.571797 
L 288.703061 330.878368 
L 291.25217 325.782977 
L 296.350388 314.76048 
L 298.899497 308.492061 
L 303.997716 295.164295 
L 309.095934 280.348513 
L 311.645043 272.49478 
L 314.194153 264.270206 
L 316.743262 255.633104 
L 329.488808 209.514417 
L 334.587026 190.451622 
L 342.234354 163.563707 
L 347.332572 146.470838 
L 354.979899 122.369542 
L 357.529009 115.872029 
L 362.627227 104.640529 
L 365.176336 100.098884 
L 367.725445 96.365829 
L 370.274555 92.924897 
L 372.823664 90.307479 
L 375.372773 88.856145 
L 377.921882 88.401147 
L 380.470991 88.295518 
L 383.020101 88.492856 
L 385.56921 90.008286 
L 388.118319 93.060448 
L 390.667428 96.855951 
L 393.216537 101.485632 
L 398.314756 111.398342 
L 400.863865 116.981084 
L 403.412974 124.094191 
L 408.511192 140.346461 
L 416.15852 165.77962 
L 418.707629 175.480003 
L 426.354957 202.653497 
L 431.453175 222.040252 
L 436.551393 240.535475 
L 441.649612 257.892475 
L 446.74783 274.276748 
L 449.296939 282.320946 
L 451.846048 289.932401 
L 456.944267 303.87306 
L 459.493376 310.08626 
L 467.140704 326.887104 
L 469.689813 332.225505 
L 472.238922 336.811153 
L 477.33714 344.438222 
L 479.886249 348.092693 
L 482.435359 351.467987 
L 484.984468 354.458839 
L 487.533577 357.141461 
L 490.082686 359.614957 
L 492.631795 361.694809 
L 497.730014 365.263647 
L 500.279123 366.92808 
L 502.828232 368.40382 
L 505.377341 369.606892 
L 510.47556 371.728694 
L 513.024669 372.685455 
L 518.122887 374.03857 
L 523.221106 375.16519 
L 528.319324 375.845675 
L 533.417542 376.527217 
L 541.06487 377.099204 
L 548.712197 377.508011 
L 561.457743 377.822989 
L 576.752398 377.941708 
L 614.989036 377.994332 
L 622.636364 377.999978 
L 622.636364 377.999978 
" clip-path="url(#p838602faa3)" style="fill: none; stroke-dasharray: 7.4,3.2; stroke-dashoffset: 0; stroke: #008080; stroke-opacity: 0.8; stroke-width: 2"/>
   </g>
   <g id="line2d_18">
    <path d="M 147.08751 377.999981 
L 201.168741 377.8975 
L 221.449203 377.546418 
L 230.462742 376.991168 
L 237.222896 376.20125 
L 241.729665 375.564175 
L 246.236434 374.647369 
L 250.743203 373.567834 
L 252.996588 372.860911 
L 257.503357 371.100445 
L 259.756742 370.038829 
L 262.010127 368.831549 
L 266.516896 365.9173 
L 268.770281 364.334648 
L 271.023665 362.501966 
L 273.27705 360.450054 
L 275.530434 358.153333 
L 277.783819 355.579559 
L 280.037204 352.812376 
L 282.290588 349.831292 
L 284.543973 346.479264 
L 289.050742 339.159703 
L 291.304127 334.846705 
L 298.064281 320.458585 
L 300.317666 315.01878 
L 302.57105 309.035324 
L 307.077819 295.808595 
L 309.331204 288.662127 
L 316.091358 265.686611 
L 318.344743 257.810341 
L 320.598127 249.212025 
L 327.358281 221.242872 
L 338.625204 173.773741 
L 347.638743 136.363662 
L 352.145512 119.83899 
L 354.398897 111.78808 
L 356.652282 104.477861 
L 358.905666 98.182107 
L 363.412436 86.500917 
L 365.66582 81.079234 
L 367.919205 76.872779 
L 370.172589 73.887389 
L 372.425974 71.776048 
L 376.932743 68.511477 
L 379.186128 67.371429 
L 381.439513 67.609725 
L 383.692897 69.101163 
L 385.946282 71.674192 
L 388.199667 74.657801 
L 392.706436 80.313108 
L 394.959821 84.541745 
L 397.213205 90.56904 
L 403.973359 112.625025 
L 406.226744 120.272977 
L 417.493667 164.962942 
L 424.253821 193.570274 
L 431.013975 222.525899 
L 440.027513 258.402071 
L 444.534283 274.568999 
L 446.787667 282.272503 
L 453.547821 303.262659 
L 455.801206 309.599305 
L 458.054591 315.524997 
L 460.307975 320.974251 
L 464.814744 330.938156 
L 467.068129 335.560728 
L 469.321514 339.834812 
L 473.828283 346.993495 
L 476.081668 350.446157 
L 478.335052 353.348299 
L 482.841822 358.313834 
L 485.095206 360.617761 
L 487.348591 362.730832 
L 489.601976 364.662263 
L 491.85536 366.298207 
L 496.362129 368.98105 
L 498.615514 370.1604 
L 500.868899 371.194073 
L 503.122283 372.068123 
L 512.135822 374.695724 
L 516.642591 375.520993 
L 523.402745 376.568483 
L 527.909514 376.962065 
L 539.176438 377.582424 
L 557.203515 377.893989 
L 579.737361 377.992484 
L 595.511054 377.999979 
L 595.511054 377.999979 
" clip-path="url(#p838602faa3)" style="fill: none; stroke-dasharray: 2,3.3; stroke-dashoffset: 0; stroke: #dda0dd; stroke-opacity: 0.8; stroke-width: 2"/>
   </g>
   <g id="patch_3">
    <path d="M 90 378 
L 90 51.84 
" style="fill: none; stroke: #d3d3d3; stroke-width: 0.8; stroke-linejoin: miter; stroke-linecap: square"/>
   </g>
   <g id="patch_4">
    <path d="M 648 378 
L 648 51.84 
" style="fill: none; stroke: #d3d3d3; stroke-width: 0.8; stroke-linejoin: miter; stroke-linecap: square"/>
   </g>
   <g id="patch_5">
    <path d="M 90 378 
L 648 378 
" style="fill: none; stroke: #d3d3d3; stroke-width: 0.8; stroke-linejoin: miter; stroke-linecap: square"/>
   </g>
   <g id="patch_6">
    <path d="M 90 51.84 
L 648 51.84 
" style="fill: none; stroke: #d3d3d3; stroke-width: 0.8; stroke-linejoin: miter; stroke-linecap: square"/>
   </g>
   <g id="legend_1">
    <g id="patch_7">
     <path d="M 496.49375 155.90875 
L 634 155.90875 
Q 638 155.90875 638 151.90875 
L 638 65.84 
Q 638 61.84 634 61.84 
L 496.49375 61.84 
Q 492.49375 61.84 492.49375 65.84 
L 492.49375 151.90875 
Q 492.49375 155.90875 496.49375 155.90875 
z
" style="fill: #d3d3d3; opacity: 0.8; stroke: #cccccc; stroke-linejoin: miter"/>
    </g>
    <g id="patch_8">
     <path d="M 500.49375 85.036875 
L 540.49375 85.036875 
L 540.49375 71.036875 
L 500.49375 71.036875 
z
" style="fill: #ff7f50; fill-opacity: 0.18; stroke: #ff7f50; stroke-linejoin: miter"/>
    </g>
    <g id="text_18">
     <!-- T=4.0 -->
     <g transform="translate(556.49375 85.036875) scale(0.2 -0.2)">
      <defs>
       <path id="DejaVuSans-54" d="M -19 4666 
L 3928 4666 
L 3928 4134 
L 2272 4134 
L 2272 0 
L 1638 0 
L 1638 4134 
L -19 4134 
L -19 4666 
z
" transform="scale(0.015625)"/>
       <path id="DejaVuSans-3d" d="M 678 2906 
L 4684 2906 
L 4684 2381 
L 678 2381 
L 678 2906 
z
M 678 1631 
L 4684 1631 
L 4684 1100 
L 678 1100 
L 678 1631 
z
" transform="scale(0.015625)"/>
      </defs>
      <use xlink:href="#DejaVuSans-54"/>
      <use xlink:href="#DejaVuSans-3d" x="61.083984"/>
      <use xlink:href="#DejaVuSans-34" x="144.873047"/>
      <use xlink:href="#DejaVuSans-2e" x="208.496094"/>
      <use xlink:href="#DejaVuSans-30" x="240.283203"/>
     </g>
    </g>
    <g id="patch_9">
     <path d="M 500.49375 114.393125 
L 540.49375 114.393125 
L 540.49375 100.393125 
L 500.49375 100.393125 
z
" style="fill: #008080; fill-opacity: 0.18; stroke-dasharray: 3.7,1.6; stroke-dashoffset: 0; stroke: #008080; stroke-linejoin: miter"/>
    </g>
    <g id="text_19">
     <!-- T=2.5 -->
     <g transform="translate(556.49375 114.393125) scale(0.2 -0.2)">
      <use xlink:href="#DejaVuSans-54"/>
      <use xlink:href="#DejaVuSans-3d" x="61.083984"/>
      <use xlink:href="#DejaVuSans-32" x="144.873047"/>
      <use xlink:href="#DejaVuSans-2e" x="208.496094"/>
      <use xlink:href="#DejaVuSans-35" x="240.283203"/>
     </g>
    </g>
    <g id="patch_10">
     <path d="M 500.49375 143.749375 
L 540.49375 143.749375 
L 540.49375 129.749375 
L 500.49375 129.749375 
z
" style="fill: #dda0dd; fill-opacity: 0.18; stroke-dasharray: 1,1.65; stroke-dashoffset: 0; stroke: #dda0dd; stroke-linejoin: miter"/>
    </g>
    <g id="text_20">
     <!-- T=2.25 -->
     <g transform="translate(556.49375 143.749375) scale(0.2 -0.2)">
      <use xlink:href="#DejaVuSans-54"/>
      <use xlink:href="#DejaVuSans-3d" x="61.083984"/>
      <use xlink:href="#DejaVuSans-32" x="144.873047"/>
      <use xlink:href="#DejaVuSans-2e" x="208.496094"/>
      <use xlink:href="#DejaVuSans-32" x="240.283203"/>
      <use xlink:href="#DejaVuSans-35" x="303.90625"/>
     </g>
    </g>
   </g>
  </g>
 </g>
 <defs>
  <clipPath id="p838602faa3">
   <rect x="90" y="51.84" width="558" height="326.16"/>
  </clipPath>
 </defs>
</svg>
