<?xml version="1.0" encoding="utf-8"?>
<!-- Generator: Adobe Adobe Illustrator 28.6.0, SVG Export Plug-In . SVG Version: 6.00 Build 0)  -->
<svg version="1.1" id="Layer_1" xmlns="http://www.w3.org/2000/svg" xmlns:xlink="http://www.w3.org/1999/xlink" x="0px" y="0px"
	 width="1280px" height="720px" viewBox="0 0 1280 720" style="enable-background:new 0 0 1280 720;" xml:space="preserve">
<style type="text/css">
	.st0{fill:none;stroke:#000000;stroke-width:0.9814;stroke-dasharray:0.9814,0.9814;}
	.st1{fill:url(#path5725_00000178206240998798779610000001064558730050221481_);}
	.st2{fill:none;}
	.st3{fill-rule:evenodd;clip-rule:evenodd;stroke:#000000;stroke-width:0.9422;stroke-miterlimit:3.84;}
	.st4{fill-rule:evenodd;clip-rule:evenodd;stroke:#000000;stroke-width:0.9814;}
	.st5{fill:url(#path7485_00000047029148499399455800000005844774431919859077_);}
	.st6{fill:url(#path7493_00000072245481974680099990000009112388781878317241_);}
	.st7{fill:url(#path7499_00000150093487564973945220000013685208039162763956_);}
	.st8{fill:url(#path7505_00000172417673621974026140000007372126581550807996_);}
	.st9{fill:url(#path7511_00000122002469719522337330000010509416074047752609_);}
	.st10{fill:url(#path7515_00000086656094027821697260000013234221141126690749_);}
	.st11{fill:url(#path7519_00000109024565907293201510000006131661210453914028_);}
	.st12{fill:url(#path7523_00000142135550418899394650000012743345651109466021_);}
	.st13{fill:url(#path7527_00000089544725213159914940000000451028567977529762_);}
	.st14{fill:url(#path7541_00000021834572367328844480000007568192898270109574_);}
	.st15{fill:url(#path7545_00000062881288843288780880000008603492625488661642_);}
	.st16{fill:url(#path7549_00000180359887828719709360000002535804465346386838_);}
	.st17{fill:url(#path7553_00000047060244033130484520000014042518989568864134_);}
	.st18{fill:url(#path7557_00000013154431104937437500000002178651175608226953_);}
	.st19{fill:url(#path7571_00000159446556714498233050000007925689524054353072_);}
	.st20{fill:url(#path7575_00000060710953180119489100000008786517526058455176_);}
	.st21{fill:url(#path7579_00000146475223002530578500000016488520032702991783_);}
	.st22{fill:url(#path7583_00000108281510756713088720000001775902744469547145_);}
	.st23{fill:url(#path7587_00000079481000661852635520000006536191499375739302_);}
	.st24{fill:url(#path7591_00000052816238118967427630000016780260231485521337_);}
	.st25{fill:url(#path7595_00000101818423697236653850000016955305753969932182_);}
	.st26{fill:url(#path7599_00000016060200159619857130000000873820994647346307_);}
	.st27{fill:url(#path7603_00000115477995882369187990000014358340164051023254_);}
	.st28{fill:url(#path7607_00000127747423517706600650000005410620164787115425_);}
	.st29{fill:none;stroke:#FFFFFF;stroke-width:1.7319;}
	.st30{fill:#FF0000;stroke:#FF0000;stroke-width:1.7319;}
	.st31{fill:#ADD8E6;stroke:#ADD8E6;stroke-width:1.7319;}
	.st32{fill:#B3B3B3;stroke:#B3B3B3;stroke-width:1.7319;}
	.st33{fill:#67AFD3;}
	.st34{fill:none;stroke:#E3CC2A;stroke-width:1.7319;}
	.st35{fill:#E3CC2A;}
	.st36{fill:#EDEDED;}
	.st37{font-family:'SourceSansPro-Regular';}
	.st38{font-size:48px;}
	.st39{fill:#DDDDDD;}
</style>
<g>
	<defs>
		<inkscape:perspective  id="perspective5723"></inkscape:perspective>
	</defs>
	<sodipodi:namedview  bordercolor="#666666" borderopacity="1.0" id="base" pagecolor="#ffffff" showgrid="false">
		<inkscape:grid  empspacing="5" enabled="true" id="grid6273" snapvisiblegridlinesonly="true" type="xygrid" visible="true">
			</inkscape:grid>
	</sodipodi:namedview>
	<g id="layer1_00000026160813835334055050000001529449346189321361_" transform="translate(-179.5,-340.86218)">
		<path id="path7631_00000147909161455909594380000006771306774722173867_" class="st0" d="M247.01,551.44H663.5"/>
		<path id="path7633_00000062873082107931022430000000504636195341533569_" class="st0" d="M247.01,628.17L247.01,628.17H663.5"/>
		<path id="path7635_00000003822296987288743870000014019552424995409562_" class="st0" d="M247.01,705.88L247.01,705.88H663.5"/>
		<path id="path7637_00000110462566464660522980000003524700917696033461_" class="st0" d="M247.01,783.59L247.01,783.59H663.5"/>
		<path id="path7639_00000097470628005237079010000013550683973930294677_" class="st0" d="M248.01,861.3L248.01,861.3H663.5"/>
		<path id="path7641_00000040553141800795283920000008753220882750119850_" class="st0" d="M297.59,501.9v407.96"/>
		<path id="path7643_00000181064441088483758460000013176051660384590233_" class="st0" d="M376.92,503.84h-0.99v406.02"/>
		<path id="path7645_00000045581214723103064300000006746995278102163371_" class="st0" d="M455.26,500.93L455.26,500.93v408.93"/>
		<path id="path7647_00000050663735447843441860000010588502904556459925_" class="st0" d="M534.59,503.84L534.59,503.84v406.02"/>
		<path id="path7649_00000049180171039461083390000010462088013280359051_" class="st0" d="M613.92,502.87L613.92,502.87v406.99"/>
		
			<radialGradient id="path5725_00000117673044560653596740000013895291384470183059_" cx="168.4744" cy="1690.6836" r="50" gradientTransform="matrix(0.595 0 0 -0.5828 193.3828 1528.7117)" gradientUnits="userSpaceOnUse">
			<stop  offset="0" style="stop-color:#FFFFFF"/>
			<stop  offset="0.54" style="stop-color:#C3C3C3"/>
			<stop  offset="1" style="stop-color:#7C7C7C"/>
		</radialGradient>
		
			<path id="path5725_00000100371312816361559590000005895188111164453809_" style="fill:url(#path5725_00000117673044560653596740000013895291384470183059_);" d="
			M326.35,550.95c0,16.09-13.32,29.14-29.75,29.14c-16.43,0-29.75-13.05-29.75-29.14c0-16.09,13.32-29.14,29.75-29.14
			C313.03,521.81,326.35,534.86,326.35,550.95z"/>
		<path id="path6428_00000139281023238856826920000008948358604310408882_" class="st3" d="M297.19,569.93l-4.76-8.07h9.52
			L297.19,569.93z"/>
		
			<radialGradient id="path7485_00000039828410176286041990000001394659657106418860_" cx="168.4744" cy="1690.6836" r="50" gradientTransform="matrix(0.595 0 0 -0.5828 272.7133 1528.226)" gradientUnits="userSpaceOnUse">
			<stop  offset="0" style="stop-color:#FFFFFF"/>
			<stop  offset="0.54" style="stop-color:#C3C3C3"/>
			<stop  offset="1" style="stop-color:#7C7C7C"/>
		</radialGradient>
		
			<path id="path7485_00000054963486891902587300000001955048347153371280_" style="fill:url(#path7485_00000039828410176286041990000001394659657106418860_);" d="
			M405.68,550.47c0,16.09-13.32,29.14-29.75,29.14c-16.43,0-29.75-13.05-29.75-29.14c0-16.09,13.32-29.14,29.75-29.14
			C392.36,521.33,405.68,534.37,405.68,550.47z"/>
		<path id="path6419_00000027602881235268758090000004927547050429327776_" class="st3" d="M376.52,530.13l4.76,8.07h-9.52
			L376.52,530.13z"/>
		
			<radialGradient id="path7493_00000142889320311807427120000013931609269745263269_" cx="168.4744" cy="1690.6836" r="50" gradientTransform="matrix(0.595 0 0 -0.5828 352.0439 1528.226)" gradientUnits="userSpaceOnUse">
			<stop  offset="0" style="stop-color:#FFFFFF"/>
			<stop  offset="0.54" style="stop-color:#C3C3C3"/>
			<stop  offset="1" style="stop-color:#7C7C7C"/>
		</radialGradient>
		
			<path id="path7493_00000051346059371642019720000002997877151223409824_" style="fill:url(#path7493_00000142889320311807427120000013931609269745263269_);" d="
			M485.01,550.47c0,16.09-13.32,29.14-29.75,29.14c-16.43,0-29.75-13.05-29.75-29.14c0-16.09,13.32-29.14,29.75-29.14
			C471.69,521.33,485.01,534.37,485.01,550.47z"/>
		<path id="path6419_00000024722120153533736050000011426081513000184719_" class="st3" d="M455.85,530.13l4.76,8.07h-9.52
			L455.85,530.13z"/>
		
			<radialGradient id="path7499_00000152950392064148701280000009658764472922162091_" cx="168.4744" cy="1690.6836" r="50" gradientTransform="matrix(0.595 0 0 -0.5828 431.3744 1528.226)" gradientUnits="userSpaceOnUse">
			<stop  offset="0" style="stop-color:#FFFFFF"/>
			<stop  offset="0.54" style="stop-color:#C3C3C3"/>
			<stop  offset="1" style="stop-color:#7C7C7C"/>
		</radialGradient>
		
			<path id="path7499_00000141416697705482814050000013343991642722252929_" style="fill:url(#path7499_00000152950392064148701280000009658764472922162091_);" d="
			M564.34,550.47c0,16.09-13.32,29.14-29.75,29.14s-29.75-13.05-29.75-29.14c0-16.09,13.32-29.14,29.75-29.14
			S564.34,534.37,564.34,550.47z"/>
		<path id="path6428_00000133513125980832898490000009008230219776917402_" class="st3" d="M535.18,569.45l-4.76-8.07h9.52
			L535.18,569.45z"/>
		
			<radialGradient id="path7505_00000036239734009184044280000000349358591493100213_" cx="168.4744" cy="1690.6836" r="50" gradientTransform="matrix(0.595 0 0 -0.5828 510.7049 1528.226)" gradientUnits="userSpaceOnUse">
			<stop  offset="0" style="stop-color:#FFFFFF"/>
			<stop  offset="0.54" style="stop-color:#C3C3C3"/>
			<stop  offset="1" style="stop-color:#7C7C7C"/>
		</radialGradient>
		
			<path id="path7505_00000036956630216775198170000015676221537080292788_" style="fill:url(#path7505_00000036239734009184044280000000349358591493100213_);" d="
			M643.67,550.47c0,16.09-13.32,29.14-29.75,29.14s-29.75-13.05-29.75-29.14c0-16.09,13.32-29.14,29.75-29.14
			S643.67,534.37,643.67,550.47z"/>
		<path id="path6419_00000011007296752159972370000008725118471209976460_" class="st3" d="M614.51,530.13l4.76,8.07h-9.52
			L614.51,530.13z"/>
		
			<radialGradient id="path7511_00000088125440711534434700000009823551453852192157_" cx="168.4744" cy="1690.6836" r="50" gradientTransform="matrix(0.595 0 0 -0.5828 193.3828 1605.9331)" gradientUnits="userSpaceOnUse">
			<stop  offset="0" style="stop-color:#FFFFFF"/>
			<stop  offset="0.54" style="stop-color:#C3C3C3"/>
			<stop  offset="1" style="stop-color:#7C7C7C"/>
		</radialGradient>
		
			<path id="path7511_00000040565281240402525450000009832176824443042967_" style="fill:url(#path7511_00000088125440711534434700000009823551453852192157_);" d="
			M326.35,628.17c0,16.09-13.32,29.14-29.75,29.14c-16.43,0-29.75-13.05-29.75-29.14c0-16.09,13.32-29.14,29.75-29.14
			C313.03,599.03,326.35,612.08,326.35,628.17z"/>
		<path id="path6419_00000095316907861223409430000008812898622380892847_" class="st3" d="M297.19,607.84l4.76,8.07h-9.52
			L297.19,607.84z"/>
		
			<radialGradient id="path7515_00000061466123123498756940000018321002564522297258_" cx="168.4744" cy="1690.6836" r="50" gradientTransform="matrix(0.595 0 0 -0.5828 272.7133 1605.4474)" gradientUnits="userSpaceOnUse">
			<stop  offset="0" style="stop-color:#FFFFFF"/>
			<stop  offset="0.54" style="stop-color:#C3C3C3"/>
			<stop  offset="1" style="stop-color:#7C7C7C"/>
		</radialGradient>
		
			<path id="path7515_00000178205672935981313990000017374461559694307476_" style="fill:url(#path7515_00000061466123123498756940000018321002564522297258_);" d="
			M405.68,627.69c0,16.09-13.32,29.14-29.75,29.14c-16.43,0-29.75-13.05-29.75-29.14c0-16.09,13.32-29.14,29.75-29.14
			C392.36,598.55,405.68,611.59,405.68,627.69z"/>
		<path id="path6428_00000087403894566278779280000002103619171989535113_" class="st3" d="M376.52,646.67l-4.76-8.07h9.52
			L376.52,646.67z"/>
		
			<radialGradient id="path7519_00000139978470259594496780000017914892582472295315_" cx="168.4744" cy="1690.6836" r="50" gradientTransform="matrix(0.595 0 0 -0.5828 352.0439 1605.4474)" gradientUnits="userSpaceOnUse">
			<stop  offset="0" style="stop-color:#FFFFFF"/>
			<stop  offset="0.54" style="stop-color:#C3C3C3"/>
			<stop  offset="1" style="stop-color:#7C7C7C"/>
		</radialGradient>
		
			<path id="path7519_00000176012234024560358200000010448551155948940439_" style="fill:url(#path7519_00000139978470259594496780000017914892582472295315_);" d="
			M485.01,627.69c0,16.09-13.32,29.14-29.75,29.14c-16.43,0-29.75-13.05-29.75-29.14c0-16.09,13.32-29.14,29.75-29.14
			C471.69,598.55,485.01,611.59,485.01,627.69z"/>
		<path id="path6428_00000116937229102601878180000018196230068331697549_" class="st3" d="M455.85,646.67l-4.76-8.07h9.52
			L455.85,646.67z"/>
		
			<radialGradient id="path7523_00000165942011419822421480000010956248946829217676_" cx="168.4744" cy="1690.6836" r="50" gradientTransform="matrix(0.595 0 0 -0.5828 431.3744 1605.4474)" gradientUnits="userSpaceOnUse">
			<stop  offset="0" style="stop-color:#FFFFFF"/>
			<stop  offset="0.54" style="stop-color:#C3C3C3"/>
			<stop  offset="1" style="stop-color:#7C7C7C"/>
		</radialGradient>
		
			<path id="path7523_00000108267889084724876650000010402379702280118198_" style="fill:url(#path7523_00000165942011419822421480000010956248946829217676_);" d="
			M564.34,627.69c0,16.09-13.32,29.14-29.75,29.14s-29.75-13.05-29.75-29.14c0-16.09,13.32-29.14,29.75-29.14
			S564.34,611.59,564.34,627.69z"/>
		<path id="path6419_00000145780177105861812140000006677629777908291480_" class="st3" d="M535.18,607.35l4.76,8.07h-9.52
			L535.18,607.35z"/>
		
			<radialGradient id="path7527_00000067205244743351017640000000411720702425113022_" cx="168.4744" cy="1690.6836" r="50" gradientTransform="matrix(0.595 0 0 -0.5828 510.7049 1605.4474)" gradientUnits="userSpaceOnUse">
			<stop  offset="0" style="stop-color:#FFFFFF"/>
			<stop  offset="0.54" style="stop-color:#C3C3C3"/>
			<stop  offset="1" style="stop-color:#7C7C7C"/>
		</radialGradient>
		
			<path id="path7527_00000154396699420482999720000004217103136034502539_" style="fill:url(#path7527_00000067205244743351017640000000411720702425113022_);" d="
			M643.67,627.69c0,16.09-13.32,29.14-29.75,29.14s-29.75-13.05-29.75-29.14c0-16.09,13.32-29.14,29.75-29.14
			S643.67,611.59,643.67,627.69z"/>
		<path id="path6428_00000097476895169882427200000010993298993988043688_" class="st3" d="M614.51,646.67l-4.76-8.07h9.52
			L614.51,646.67z"/>
		
			<radialGradient id="path7541_00000083767725382646021530000005910729755494395795_" cx="168.4744" cy="1690.6836" r="50" gradientTransform="matrix(0.595 0 0 -0.5828 193.3828 1683.6401)" gradientUnits="userSpaceOnUse">
			<stop  offset="0" style="stop-color:#FFFFFF"/>
			<stop  offset="0.54" style="stop-color:#C3C3C3"/>
			<stop  offset="1" style="stop-color:#7C7C7C"/>
		</radialGradient>
		
			<path id="path7541_00000157272653068316232070000003525110089846290851_" style="fill:url(#path7541_00000083767725382646021530000005910729755494395795_);" d="
			M326.35,705.88c0,16.09-13.32,29.14-29.75,29.14c-16.43,0-29.75-13.05-29.75-29.14c0-16.09,13.32-29.14,29.75-29.14
			C313.03,676.74,326.35,689.79,326.35,705.88z"/>
		<path id="path6419_00000137108837506274857590000016820714220899331975_" class="st3" d="M297.19,685.54l4.76,8.07h-9.52
			L297.19,685.54z"/>
		
			<radialGradient id="path7545_00000087381482240341107020000016474439339767278240_" cx="168.4744" cy="1690.6836" r="50" gradientTransform="matrix(0.595 0 0 -0.5828 272.7133 1683.1544)" gradientUnits="userSpaceOnUse">
			<stop  offset="0" style="stop-color:#FFFFFF"/>
			<stop  offset="0.54" style="stop-color:#C3C3C3"/>
			<stop  offset="1" style="stop-color:#7C7C7C"/>
		</radialGradient>
		
			<path id="path7545_00000083088761684350764510000015530125913434587286_" style="fill:url(#path7545_00000087381482240341107020000016474439339767278240_);" d="
			M405.68,705.4c0,16.09-13.32,29.14-29.75,29.14c-16.43,0-29.75-13.05-29.75-29.14s13.32-29.14,29.75-29.14
			C392.36,676.26,405.68,689.3,405.68,705.4z"/>
		<path id="path6419_00000144299277305307242490000017523257050217191044_" class="st3" d="M376.52,685.06l4.76,8.07h-9.52
			L376.52,685.06z"/>
		
			<radialGradient id="path7549_00000153675919417175729740000002059372282084525476_" cx="168.4744" cy="1690.6836" r="50" gradientTransform="matrix(0.595 0 0 -0.5828 352.0439 1683.1544)" gradientUnits="userSpaceOnUse">
			<stop  offset="0" style="stop-color:#FFFFFF"/>
			<stop  offset="0.54" style="stop-color:#C3C3C3"/>
			<stop  offset="1" style="stop-color:#7C7C7C"/>
		</radialGradient>
		
			<path id="path7549_00000109021952253531658210000010207346716095388565_" style="fill:url(#path7549_00000153675919417175729740000002059372282084525476_);" d="
			M485.01,705.4c0,16.09-13.32,29.14-29.75,29.14c-16.43,0-29.75-13.05-29.75-29.14s13.32-29.14,29.75-29.14
			C471.69,676.26,485.01,689.3,485.01,705.4z"/>
		<path id="path6428_00000144331045308920504370000011435708567732262792_" class="st3" d="M455.85,724.37l-4.76-8.07h9.52
			L455.85,724.37z"/>
		
			<radialGradient id="path7553_00000108998785382507087230000014172131975810035628_" cx="168.4744" cy="1690.6836" r="50" gradientTransform="matrix(0.595 0 0 -0.5828 431.3744 1683.1544)" gradientUnits="userSpaceOnUse">
			<stop  offset="0" style="stop-color:#FFFFFF"/>
			<stop  offset="0.54" style="stop-color:#C3C3C3"/>
			<stop  offset="1" style="stop-color:#7C7C7C"/>
		</radialGradient>
		
			<path id="path7553_00000125603883796758982120000017751541318511178156_" style="fill:url(#path7553_00000108998785382507087230000014172131975810035628_);" d="
			M564.34,705.4c0,16.09-13.32,29.14-29.75,29.14s-29.75-13.05-29.75-29.14s13.32-29.14,29.75-29.14S564.34,689.3,564.34,705.4z"/>
		<path id="path6419_00000126289659411223892560000018007608716812964273_" class="st3" d="M535.18,685.06l4.76,8.07h-9.52
			L535.18,685.06z"/>
		
			<radialGradient id="path7557_00000081634122784878742250000014154569428875753647_" cx="168.4744" cy="1690.6836" r="50" gradientTransform="matrix(0.595 0 0 -0.5828 510.7049 1683.1544)" gradientUnits="userSpaceOnUse">
			<stop  offset="0" style="stop-color:#FFFFFF"/>
			<stop  offset="0.54" style="stop-color:#C3C3C3"/>
			<stop  offset="1" style="stop-color:#7C7C7C"/>
		</radialGradient>
		
			<path id="path7557_00000034090505777393516410000012953310076966291107_" style="fill:url(#path7557_00000081634122784878742250000014154569428875753647_);" d="
			M643.67,705.4c0,16.09-13.32,29.14-29.75,29.14s-29.75-13.05-29.75-29.14s13.32-29.14,29.75-29.14S643.67,689.3,643.67,705.4z"/>
		<path id="path6428_00000027603515479533228070000016706441974293403034_" class="st3" d="M614.51,724.37l-4.76-8.07h9.52
			L614.51,724.37z"/>
		
			<radialGradient id="path7571_00000067919224448449140050000004917313430988875683_" cx="168.4744" cy="1690.6836" r="50" gradientTransform="matrix(0.595 0 0 -0.5828 193.3828 1761.3472)" gradientUnits="userSpaceOnUse">
			<stop  offset="0" style="stop-color:#FFFFFF"/>
			<stop  offset="0.54" style="stop-color:#C3C3C3"/>
			<stop  offset="1" style="stop-color:#7C7C7C"/>
		</radialGradient>
		
			<path id="path7571_00000052813512444661797580000015388889654071259793_" style="fill:url(#path7571_00000067919224448449140050000004917313430988875683_);" d="
			M326.35,783.59c0,16.09-13.32,29.14-29.75,29.14c-16.43,0-29.75-13.05-29.75-29.14c0-16.09,13.32-29.14,29.75-29.14
			C313.03,754.45,326.35,767.49,326.35,783.59z"/>
		<path id="path6428_00000103977982062512287090000000855824288574693782_" class="st3" d="M297.19,802.57l-4.76-8.07h9.52
			L297.19,802.57z"/>
		
			<radialGradient id="path7575_00000027584396825789155610000016084318745108638882_" cx="168.4744" cy="1690.6836" r="50" gradientTransform="matrix(0.595 0 0 -0.5828 272.7133 1760.8615)" gradientUnits="userSpaceOnUse">
			<stop  offset="0" style="stop-color:#FFFFFF"/>
			<stop  offset="0.54" style="stop-color:#C3C3C3"/>
			<stop  offset="1" style="stop-color:#7C7C7C"/>
		</radialGradient>
		
			<path id="path7575_00000016049679599812241630000011722512324305105547_" style="fill:url(#path7575_00000027584396825789155610000016084318745108638882_);" d="
			M405.68,783.1c0,16.09-13.32,29.14-29.75,29.14c-16.43,0-29.75-13.05-29.75-29.14c0-16.09,13.32-29.14,29.75-29.14
			C392.36,753.96,405.68,767.01,405.68,783.1z"/>
		<path id="path6428_00000086693365770200960780000008104303597943255739_" class="st3" d="M376.52,802.08l-4.76-8.07h9.52
			L376.52,802.08z"/>
		
			<radialGradient id="path7579_00000016783695873312763110000001471872393563335596_" cx="168.4744" cy="1690.6836" r="50" gradientTransform="matrix(0.595 0 0 -0.5828 352.0439 1760.8615)" gradientUnits="userSpaceOnUse">
			<stop  offset="0" style="stop-color:#FFFFFF"/>
			<stop  offset="0.54" style="stop-color:#C3C3C3"/>
			<stop  offset="1" style="stop-color:#7C7C7C"/>
		</radialGradient>
		
			<path id="path7579_00000157995136928153727890000009939223657435345817_" style="fill:url(#path7579_00000016783695873312763110000001471872393563335596_);" d="
			M485.01,783.1c0,16.09-13.32,29.14-29.75,29.14c-16.43,0-29.75-13.05-29.75-29.14c0-16.09,13.32-29.14,29.75-29.14
			C471.69,753.96,485.01,767.01,485.01,783.1z"/>
		<path id="path6419_00000116230335406013289900000010102604482282233275_" class="st3" d="M455.85,762.76l4.76,8.07h-9.52
			L455.85,762.76z"/>
		
			<radialGradient id="path7583_00000075155345143657804740000015463841084353061760_" cx="168.4744" cy="1690.6836" r="50" gradientTransform="matrix(0.595 0 0 -0.5828 431.3744 1760.8615)" gradientUnits="userSpaceOnUse">
			<stop  offset="0" style="stop-color:#FFFFFF"/>
			<stop  offset="0.54" style="stop-color:#C3C3C3"/>
			<stop  offset="1" style="stop-color:#7C7C7C"/>
		</radialGradient>
		
			<path id="path7583_00000169559167001947294990000003286818595742610098_" style="fill:url(#path7583_00000075155345143657804740000015463841084353061760_);" d="
			M564.34,783.1c0,16.09-13.32,29.14-29.75,29.14s-29.75-13.05-29.75-29.14c0-16.09,13.32-29.14,29.75-29.14
			S564.34,767.01,564.34,783.1z"/>
		<path id="path6419_00000105386242054940766170000006515826843644444295_" class="st3" d="M535.18,762.76l4.76,8.07h-9.52
			L535.18,762.76z"/>
		
			<radialGradient id="path7587_00000143608181553416644170000003413569552967150982_" cx="168.4744" cy="1690.6836" r="50" gradientTransform="matrix(0.595 0 0 -0.5828 510.7049 1760.8615)" gradientUnits="userSpaceOnUse">
			<stop  offset="0" style="stop-color:#FFFFFF"/>
			<stop  offset="0.54" style="stop-color:#C3C3C3"/>
			<stop  offset="1" style="stop-color:#7C7C7C"/>
		</radialGradient>
		
			<path id="path7587_00000021805938583924791770000018353688012352249232_" style="fill:url(#path7587_00000143608181553416644170000003413569552967150982_);" d="
			M643.67,783.1c0,16.09-13.32,29.14-29.75,29.14s-29.75-13.05-29.75-29.14c0-16.09,13.32-29.14,29.75-29.14
			S643.67,767.01,643.67,783.1z"/>
		<path id="path6428_00000012448970497629264080000005692931644136016777_" class="st3" d="M614.51,802.08l-4.76-8.07h9.52
			L614.51,802.08z"/>
		
			<radialGradient id="path7591_00000120531974872222233130000009604439482837348255_" cx="168.4744" cy="1690.6836" r="50" gradientTransform="matrix(0.595 0 0 -0.5828 193.3828 1839.0542)" gradientUnits="userSpaceOnUse">
			<stop  offset="0" style="stop-color:#FFFFFF"/>
			<stop  offset="0.54" style="stop-color:#C3C3C3"/>
			<stop  offset="1" style="stop-color:#7C7C7C"/>
		</radialGradient>
		
			<path id="path7591_00000069368460856120414290000016935784160713929655_" style="fill:url(#path7591_00000120531974872222233130000009604439482837348255_);" d="
			M326.35,861.3c0,16.09-13.32,29.14-29.75,29.14c-16.43,0-29.75-13.05-29.75-29.14s13.32-29.14,29.75-29.14
			C313.03,832.16,326.35,845.2,326.35,861.3z"/>
		<path id="path6419_00000103233984447572709120000011468789784600834442_" class="st3" d="M297.19,840.96l4.76,8.07h-9.52
			L297.19,840.96z"/>
		
			<radialGradient id="path7595_00000102530717745139535880000004730646262487924885_" cx="168.4744" cy="1690.6836" r="50" gradientTransform="matrix(0.595 0 0 -0.5828 272.7133 1838.5685)" gradientUnits="userSpaceOnUse">
			<stop  offset="0" style="stop-color:#FFFFFF"/>
			<stop  offset="0.54" style="stop-color:#C3C3C3"/>
			<stop  offset="1" style="stop-color:#7C7C7C"/>
		</radialGradient>
		
			<path id="path7595_00000132772338022094829910000014817976270422982064_" style="fill:url(#path7595_00000102530717745139535880000004730646262487924885_);" d="
			M405.68,860.81c0,16.09-13.32,29.14-29.75,29.14c-16.43,0-29.75-13.05-29.75-29.14c0-16.09,13.32-29.14,29.75-29.14
			C392.36,831.67,405.68,844.72,405.68,860.81z"/>
		<path id="path6419_00000000215519470083323240000000947851544322674870_" class="st3" d="M376.52,840.47l4.76,8.07h-9.52
			L376.52,840.47z"/>
		
			<radialGradient id="path7599_00000098923593966027127920000015370116103653907873_" cx="168.4744" cy="1690.6836" r="50" gradientTransform="matrix(0.595 0 0 -0.5828 352.0439 1838.5685)" gradientUnits="userSpaceOnUse">
			<stop  offset="0" style="stop-color:#FFFFFF"/>
			<stop  offset="0.54" style="stop-color:#C3C3C3"/>
			<stop  offset="1" style="stop-color:#7C7C7C"/>
		</radialGradient>
		
			<path id="path7599_00000065773638328107755130000003362572412363030170_" style="fill:url(#path7599_00000098923593966027127920000015370116103653907873_);" d="
			M485.01,860.81c0,16.09-13.32,29.14-29.75,29.14c-16.43,0-29.75-13.05-29.75-29.14c0-16.09,13.32-29.14,29.75-29.14
			C471.69,831.67,485.01,844.72,485.01,860.81z"/>
		<path id="path6428_00000057843390699866044700000012310493967180329861_" class="st3" d="M455.85,879.79l-4.76-8.07h9.52
			L455.85,879.79z"/>
		
			<radialGradient id="path7603_00000153690854608114320050000010296903499553038214_" cx="168.4744" cy="1690.6836" r="50" gradientTransform="matrix(0.595 0 0 -0.5828 431.3744 1838.5685)" gradientUnits="userSpaceOnUse">
			<stop  offset="0" style="stop-color:#FFFFFF"/>
			<stop  offset="0.54" style="stop-color:#C3C3C3"/>
			<stop  offset="1" style="stop-color:#7C7C7C"/>
		</radialGradient>
		
			<path id="path7603_00000041295254687407695070000009289825483891897736_" style="fill:url(#path7603_00000153690854608114320050000010296903499553038214_);" d="
			M564.34,860.81c0,16.09-13.32,29.14-29.75,29.14s-29.75-13.05-29.75-29.14c0-16.09,13.32-29.14,29.75-29.14
			S564.34,844.72,564.34,860.81z"/>
		<path id="path6428_00000124869944689388453600000003827851055294052279_" class="st3" d="M535.18,879.79l-4.76-8.07h9.52
			L535.18,879.79z"/>
		
			<radialGradient id="path7607_00000150062574388148324790000013064612585596630943_" cx="168.4744" cy="1690.6836" r="50" gradientTransform="matrix(0.595 0 0 -0.5828 510.7049 1838.5685)" gradientUnits="userSpaceOnUse">
			<stop  offset="0" style="stop-color:#FFFFFF"/>
			<stop  offset="0.54" style="stop-color:#C3C3C3"/>
			<stop  offset="1" style="stop-color:#7C7C7C"/>
		</radialGradient>
		
			<path id="path7607_00000152961454194688110210000017393524836905911734_" style="fill:url(#path7607_00000150062574388148324790000013064612585596630943_);" d="
			M643.67,860.81c0,16.09-13.32,29.14-29.75,29.14s-29.75-13.05-29.75-29.14c0-16.09,13.32-29.14,29.75-29.14
			S643.67,844.72,643.67,860.81z"/>
		<path id="path6419_00000051383126944181491550000014681684506316928667_" class="st3" d="M614.51,840.47l4.76,8.07h-9.52
			L614.51,840.47z"/>
	</g>
</g>
<g>
	<g id="graph1_00000085239116951207562900000007570597783049242558_" transform="scale(1 1) rotate(0) translate(4 260)">
		<g id="graph2_00000098913934740173172290000011369580624290704556_">
			<polygon class="st29" points="817.62,237.01 817.62,-89.27 988.6,-89.27 988.6,237.01 			"/>
		</g>
		<g id="graph3_00000138563457909080796720000012248421627903628707_">
			<polygon class="st29" points="1022.79,284.37 1022.79,-136.63 1200.62,-136.63 1200.62,284.37 			"/>
		</g>
		<g id="node2_00000100360353602481851340000004934694430175425155_">
			<ellipse class="st30" cx="903.11" cy="96.67" rx="46.17" ry="32.24"/>
		</g>
		<g id="node3_00000038372052602926999170000000322904353687325827_">
			<ellipse class="st30" cx="903.11" cy="191.4" rx="46.17" ry="32.24"/>
		</g>
		<g id="node4_00000152952609383208688440000010312745682038588801_">
			<ellipse class="st30" cx="903.11" cy="1.95" rx="46.17" ry="32.24"/>
		</g>
		<g id="node6_00000148646966630830847560000015320449896937698435_">
			<ellipse class="st31" cx="1111.71" cy="-45.41" rx="46.17" ry="32.24"/>
		</g>
		<g id="edge16_00000006679919341474647140000012473762061891728815_">
			<path class="st32" d="M1078.65-22.89C1039.6,3.72,975.01,47.72,936,74.27"/>
		</g>
		<g id="edge18_00000010270133433363013410000008853645167557594556_">
			<path class="st32" d="M1087.79-18.24c-40.03,45.43-120.11,136.35-160.38,182.06"/>
		</g>
		<g id="edge20_00000112609615747174610130000010067820413255216275_">
			<path class="st32" d="M1067.47-35.36c-35.39,8.03-84.81,19.26-120.18,27.29"/>
		</g>
		<g id="node7_00000118388993746343996380000012324819447588383413_">
			<ellipse class="st31" cx="1111.71" cy="49.31" rx="46.17" ry="32.24"/>
		</g>
		<g id="edge22_00000078723274046724710950000000260742981078352028_">
			<path class="st32" d="M1067.47,59.36c-35.39,8.03-84.81,19.26-120.18,27.29"/>
		</g>
		<g id="edge24_00000039842578079265736210000013638118910349084553_">
			<path class="st32" d="M1078.65,71.84C1039.59,98.43,975.01,142.42,936,169"/>
		</g>
		<g id="edge26_00000168077232372696400170000016170159375079706557_">
			<path class="st32" d="M1067.47,39.26c-35.39-8.03-84.81-19.26-120.18-27.29"/>
		</g>
		<g id="node8_00000025435815198869978900000006399388520749625751_">
			<ellipse class="st31" cx="1111.71" cy="144.04" rx="46.17" ry="32.24"/>
		</g>
		<g id="edge4_00000004516330195597593150000018163516505220009123_">
			<path class="st32" d="M1067.47,133.99c-35.39-8.03-84.81-19.26-120.18-27.29"/>
		</g>
		<g id="edge6_00000009565630389813626920000007238910585855878077_">
			<path class="st32" d="M1067.47,154.09c-35.39,8.03-84.81,19.26-120.18,27.29"/>
		</g>
		<g id="edge8_00000157992319399158085500000007160282253615456430_">
			<path class="st32" d="M1078.65,121.53C1039.6,94.92,975.01,50.93,936,24.37"/>
		</g>
		<g id="node9_00000036949398470982779340000006790743924154715828_">
			<ellipse class="st31" cx="1111.71" cy="238.76" rx="46.17" ry="32.24"/>
		</g>
		<g id="edge10_00000146461575359239008390000002522754318507475628_">
			<path class="st32" d="M1078.65,216.26c-39.07-26.61-103.65-70.61-142.65-97.16"/>
		</g>
		<g id="edge12_00000137092813696091628850000003928199322753385639_">
			<path class="st32" d="M1067.47,228.71c-35.39-8.03-84.81-19.26-120.18-27.29"/>
		</g>
		<g id="edge14_00000143588578378232124510000013659973818198185351_">
			<path class="st32" d="M1087.79,211.59C1047.76,166.16,967.67,75.24,927.4,29.53"/>
		</g>
	</g>
</g>
<g>
	<g>
		<g>
			<line class="st34" x1="516.83" y1="249.51" x2="808.32" y2="249.51"/>
			<g>
				<polygon class="st35" points="805.8,258.14 820.75,249.51 805.8,240.87 				"/>
			</g>
		</g>
	</g>
	<text transform="matrix(1 0 0 1 618.1002 230.3099)" class="st36 st37 st38">Train</text>
</g>
<g>
	<g>
		<g>
			<line class="st34" x1="820.75" y1="489" x2="529.25" y2="489"/>
			<g>
				<polygon class="st35" points="531.78,480.36 516.83,489 531.78,497.64 				"/>
			</g>
		</g>
	</g>
	<text transform="matrix(1 0 0 1 582.8053 471.8401)" class="st36 st37 st38">Generate</text>
</g>
</svg>
