<?xml version="1.0" encoding="utf-8"?>
<!-- Generator: Adobe Illustrator 28.0.0, SVG Export Plug-In . SVG Version: 6.00 Build 0)  -->
<svg version="1.1" id="Layer_1" xmlns="http://www.w3.org/2000/svg" xmlns:xlink="http://www.w3.org/1999/xlink" x="0px" y="0px"
	 viewBox="0 0 1280 720" style="enable-background:new 0 0 1280 720;" xml:space="preserve">
<style type="text/css">
	.st0{fill:none;stroke:#000000;stroke-width:0.9814;stroke-dasharray:0.9814,0.9814;}
	.st1{fill:url(#path5725_00000072252553599229395510000017843812742008262290_);}
	.st2{fill-rule:evenodd;clip-rule:evenodd;stroke:#000000;stroke-width:0.9422;stroke-miterlimit:3.84;}
	.st3{fill-rule:evenodd;clip-rule:evenodd;stroke:#000000;stroke-width:0.9814;}
	.st4{fill:url(#path7485_00000135677958294792825020000017432032839139142316_);}
	.st5{fill:url(#path7493_00000097473398869406353610000003020444058859628449_);}
	.st6{fill:url(#path7499_00000080923167486113328350000015749219421083863430_);}
	.st7{fill:url(#path7505_00000101819971575578430260000015953394041622170500_);}
	.st8{fill:url(#path7511_00000006683620421094555630000013633670129107626681_);}
	.st9{fill:url(#path7515_00000096739225625548003470000018376473792969416079_);}
	.st10{fill:url(#path7519_00000157309349670517741470000014175355616040338851_);}
	.st11{fill:url(#path7523_00000030475235993668020750000003929855870395556014_);}
	.st12{fill:url(#path7527_00000081622535198743297720000008987964430765273236_);}
	.st13{fill:url(#path7541_00000048468258177508239480000006535481370214311083_);}
	.st14{fill:url(#path7545_00000174596605507050135850000010388938081027816598_);}
	.st15{fill:url(#path7549_00000101104253416394968670000009374093388847405241_);}
	.st16{fill:url(#path7553_00000053503321076458585450000009638175921652728722_);}
	.st17{fill:url(#path7557_00000102517701950845407800000013498260126957666727_);}
	.st18{fill:url(#path7571_00000049200602291009123910000016892901359227103890_);}
	.st19{fill:url(#path7575_00000108268599578802614430000015908084442516351661_);}
	.st20{fill:url(#path7579_00000137133267143241527700000004055091294129581731_);}
	.st21{fill:url(#path7583_00000137105035811024582760000008904636493308889235_);}
	.st22{fill:url(#path7587_00000072271282665960744810000007090933593605737402_);}
	.st23{fill:url(#path7591_00000118370565529207407230000016041248278840601228_);}
	.st24{fill:url(#path7595_00000121265754000718347220000014756824458948573827_);}
	.st25{fill:url(#path7599_00000118372587567237300790000009402089804408272552_);}
	.st26{fill:url(#path7603_00000117646285485791462010000007857625183495111358_);}
	.st27{fill:url(#path7607_00000098926286255595231950000007404323681980538801_);}
	.st28{fill:none;stroke:#FFFFFF;stroke-width:1.7319;}
	.st29{fill:#FF0000;stroke:#FF0000;stroke-width:1.7319;}
	.st30{fill:#ADD8E6;stroke:#ADD8E6;stroke-width:1.7319;}
	.st31{fill:#B3B3B3;stroke:#B3B3B3;stroke-width:1.7319;}
	.st32{fill:#67AFD3;}
	.st33{fill:none;stroke:#E3CC2A;stroke-width:1.7319;}
	.st34{fill:#E3CC2A;}
	.st35{fill:#EDEDED;}
	.st36{font-family:'SourceSansPro-Regular';}
	.st37{font-size:48px;}
	.st38{fill:#DDDDDD;}
</style>
<g>
	<defs>
		<inkscape:perspective  id="perspective5723"></inkscape:perspective>
	</defs>
	<sodipodi:namedview  bordercolor="#666666" borderopacity="1.0" id="base" pagecolor="#ffffff" showgrid="false">
		<inkscape:grid  empspacing="5" enabled="true" id="grid6273" snapvisiblegridlinesonly="true" type="xygrid" visible="true">
			</inkscape:grid>
	</sodipodi:namedview>
	<g id="layer1_00000026160813835334055050000001529449346189321361_" transform="translate(-179.5,-340.86218)">
		<path id="path7631_00000147909161455909594380000006771306774722173867_" class="st0" d="M247.01,551.44H663.5"/>
		<path id="path7633_00000062873082107931022430000000504636195341533569_" class="st0" d="M247.01,628.17L247.01,628.17H663.5"/>
		<path id="path7635_00000003822296987288743870000014019552424995409562_" class="st0" d="M247.01,705.88L247.01,705.88H663.5"/>
		<path id="path7637_00000110462566464660522980000003524700917696033461_" class="st0" d="M247.01,783.59L247.01,783.59H663.5"/>
		<path id="path7639_00000097470628005237079010000013550683973930294677_" class="st0" d="M248.01,861.3L248.01,861.3H663.5"/>
		<path id="path7641_00000040553141800795283920000008753220882750119850_" class="st0" d="M297.59,501.9v407.96"/>
		<path id="path7643_00000181064441088483758460000013176051660384590233_" class="st0" d="M376.92,503.84h-0.99v406.02"/>
		<path id="path7645_00000045581214723103064300000006746995278102163371_" class="st0" d="M455.26,500.93L455.26,500.93v408.93"/>
		<path id="path7647_00000050663735447843441860000010588502904556459925_" class="st0" d="M534.59,503.84L534.59,503.84v406.02"/>
		<path id="path7649_00000049180171039461083390000010462088013280359051_" class="st0" d="M613.92,502.87L613.92,502.87v406.99"/>
		
			<radialGradient id="path5725_00000102532248639488090500000001655239207885141416_" cx="168.4744" cy="1690.6836" r="50" gradientTransform="matrix(0.595 0 0 -0.5828 193.3828 1528.7117)" gradientUnits="userSpaceOnUse">
			<stop  offset="0" style="stop-color:#FFFFFF"/>
			<stop  offset="0.54" style="stop-color:#C3C3C3"/>
			<stop  offset="1" style="stop-color:#7C7C7C"/>
		</radialGradient>
		
			<path id="path5725_00000100371312816361559590000005895188111164453809_" style="fill:url(#path5725_00000102532248639488090500000001655239207885141416_);" d="
			M326.35,550.95c0,16.09-13.32,29.14-29.75,29.14c-16.43,0-29.75-13.05-29.75-29.14c0-16.09,13.32-29.14,29.75-29.14
			C313.03,521.81,326.35,534.86,326.35,550.95z"/>
		<path id="path6428_00000139281023238856826920000008948358604310408882_" class="st2" d="M297.19,569.93l-4.76-8.07h9.52
			L297.19,569.93z"/>
		<path id="path6277_00000130615896255506731400000014745550348008808613_" class="st3" d="M297.19,564.55"/>
		
			<radialGradient id="path7485_00000181766776746744537700000000226081842822769076_" cx="168.4744" cy="1690.6836" r="50" gradientTransform="matrix(0.595 0 0 -0.5828 272.7133 1528.226)" gradientUnits="userSpaceOnUse">
			<stop  offset="0" style="stop-color:#FFFFFF"/>
			<stop  offset="0.54" style="stop-color:#C3C3C3"/>
			<stop  offset="1" style="stop-color:#7C7C7C"/>
		</radialGradient>
		
			<path id="path7485_00000054963486891902587300000001955048347153371280_" style="fill:url(#path7485_00000181766776746744537700000000226081842822769076_);" d="
			M405.68,550.47c0,16.09-13.32,29.14-29.75,29.14c-16.43,0-29.75-13.05-29.75-29.14c0-16.09,13.32-29.14,29.75-29.14
			C392.36,521.33,405.68,534.37,405.68,550.47z"/>
		<path id="path6419_00000027602881235268758090000004927547050429327776_" class="st2" d="M376.52,530.13l4.76,8.07h-9.52
			L376.52,530.13z"/>
		<path id="path7487_00000004548543705293622300000002859032200733971118_" class="st3" d="M376.52,569.89"/>
		
			<radialGradient id="path7493_00000060005094136336147720000011772821341624026295_" cx="168.4744" cy="1690.6836" r="50" gradientTransform="matrix(0.595 0 0 -0.5828 352.0439 1528.226)" gradientUnits="userSpaceOnUse">
			<stop  offset="0" style="stop-color:#FFFFFF"/>
			<stop  offset="0.54" style="stop-color:#C3C3C3"/>
			<stop  offset="1" style="stop-color:#7C7C7C"/>
		</radialGradient>
		
			<path id="path7493_00000051346059371642019720000002997877151223409824_" style="fill:url(#path7493_00000060005094136336147720000011772821341624026295_);" d="
			M485.01,550.47c0,16.09-13.32,29.14-29.75,29.14c-16.43,0-29.75-13.05-29.75-29.14c0-16.09,13.32-29.14,29.75-29.14
			C471.69,521.33,485.01,534.37,485.01,550.47z"/>
		<path id="path6419_00000024722120153533736050000011426081513000184719_" class="st2" d="M455.85,530.13l4.76,8.07h-9.52
			L455.85,530.13z"/>
		<path id="path7495_00000161612384030145230270000008247433192380254127_" class="st3" d="M455.85,569.89"/>
		
			<radialGradient id="path7499_00000137129169928111517440000011380811232002689714_" cx="168.4744" cy="1690.6836" r="50" gradientTransform="matrix(0.595 0 0 -0.5828 431.3744 1528.226)" gradientUnits="userSpaceOnUse">
			<stop  offset="0" style="stop-color:#FFFFFF"/>
			<stop  offset="0.54" style="stop-color:#C3C3C3"/>
			<stop  offset="1" style="stop-color:#7C7C7C"/>
		</radialGradient>
		
			<path id="path7499_00000141416697705482814050000013343991642722252929_" style="fill:url(#path7499_00000137129169928111517440000011380811232002689714_);" d="
			M564.34,550.47c0,16.09-13.32,29.14-29.75,29.14s-29.75-13.05-29.75-29.14c0-16.09,13.32-29.14,29.75-29.14
			S564.34,534.37,564.34,550.47z"/>
		<path id="path6428_00000133513125980832898490000009008230219776917402_" class="st2" d="M535.18,569.45l-4.76-8.07h9.52
			L535.18,569.45z"/>
		<path id="path7501_00000135663075783401713240000014778944680532450955_" class="st3" d="M535.18,564.07"/>
		
			<radialGradient id="path7505_00000001622679472853156000000013747732165186254740_" cx="168.4744" cy="1690.6836" r="50" gradientTransform="matrix(0.595 0 0 -0.5828 510.7049 1528.226)" gradientUnits="userSpaceOnUse">
			<stop  offset="0" style="stop-color:#FFFFFF"/>
			<stop  offset="0.54" style="stop-color:#C3C3C3"/>
			<stop  offset="1" style="stop-color:#7C7C7C"/>
		</radialGradient>
		
			<path id="path7505_00000036956630216775198170000015676221537080292788_" style="fill:url(#path7505_00000001622679472853156000000013747732165186254740_);" d="
			M643.67,550.47c0,16.09-13.32,29.14-29.75,29.14s-29.75-13.05-29.75-29.14c0-16.09,13.32-29.14,29.75-29.14
			S643.67,534.37,643.67,550.47z"/>
		<path id="path6419_00000011007296752159972370000008725118471209976460_" class="st2" d="M614.51,530.13l4.76,8.07h-9.52
			L614.51,530.13z"/>
		<path id="path7507_00000043456627092431079300000011641951135157072007_" class="st3" d="M614.51,569.89"/>
		
			<radialGradient id="path7511_00000163763832225069535950000008046519373578112949_" cx="168.4744" cy="1690.6836" r="50" gradientTransform="matrix(0.595 0 0 -0.5828 193.3828 1605.9331)" gradientUnits="userSpaceOnUse">
			<stop  offset="0" style="stop-color:#FFFFFF"/>
			<stop  offset="0.54" style="stop-color:#C3C3C3"/>
			<stop  offset="1" style="stop-color:#7C7C7C"/>
		</radialGradient>
		
			<path id="path7511_00000040565281240402525450000009832176824443042967_" style="fill:url(#path7511_00000163763832225069535950000008046519373578112949_);" d="
			M326.35,628.17c0,16.09-13.32,29.14-29.75,29.14c-16.43,0-29.75-13.05-29.75-29.14c0-16.09,13.32-29.14,29.75-29.14
			C313.03,599.03,326.35,612.08,326.35,628.17z"/>
		<path id="path6419_00000095316907861223409430000008812898622380892847_" class="st2" d="M297.19,607.84l4.76,8.07h-9.52
			L297.19,607.84z"/>
		<path id="path7513_00000061463147025039324290000017933453818031571350_" class="st3" d="M297.19,647.6"/>
		
			<radialGradient id="path7515_00000022537209651383479980000000757962989658940335_" cx="168.4744" cy="1690.6836" r="50" gradientTransform="matrix(0.595 0 0 -0.5828 272.7133 1605.4474)" gradientUnits="userSpaceOnUse">
			<stop  offset="0" style="stop-color:#FFFFFF"/>
			<stop  offset="0.54" style="stop-color:#C3C3C3"/>
			<stop  offset="1" style="stop-color:#7C7C7C"/>
		</radialGradient>
		
			<path id="path7515_00000178205672935981313990000017374461559694307476_" style="fill:url(#path7515_00000022537209651383479980000000757962989658940335_);" d="
			M405.68,627.69c0,16.09-13.32,29.14-29.75,29.14c-16.43,0-29.75-13.05-29.75-29.14c0-16.09,13.32-29.14,29.75-29.14
			C392.36,598.55,405.68,611.59,405.68,627.69z"/>
		<path id="path6428_00000087403894566278779280000002103619171989535113_" class="st2" d="M376.52,646.67l-4.76-8.07h9.52
			L376.52,646.67z"/>
		<path id="path7517_00000134956491397975267470000012516700044623104423_" class="st3" d="M376.52,641.29"/>
		
			<radialGradient id="path7519_00000157996634534002444010000012916028864530581158_" cx="168.4744" cy="1690.6836" r="50" gradientTransform="matrix(0.595 0 0 -0.5828 352.0439 1605.4474)" gradientUnits="userSpaceOnUse">
			<stop  offset="0" style="stop-color:#FFFFFF"/>
			<stop  offset="0.54" style="stop-color:#C3C3C3"/>
			<stop  offset="1" style="stop-color:#7C7C7C"/>
		</radialGradient>
		
			<path id="path7519_00000176012234024560358200000010448551155948940439_" style="fill:url(#path7519_00000157996634534002444010000012916028864530581158_);" d="
			M485.01,627.69c0,16.09-13.32,29.14-29.75,29.14c-16.43,0-29.75-13.05-29.75-29.14c0-16.09,13.32-29.14,29.75-29.14
			C471.69,598.55,485.01,611.59,485.01,627.69z"/>
		<path id="path6428_00000116937229102601878180000018196230068331697549_" class="st2" d="M455.85,646.67l-4.76-8.07h9.52
			L455.85,646.67z"/>
		<path id="path7521_00000062885625971392425530000002383498324632417417_" class="st3" d="M455.85,641.29"/>
		
			<radialGradient id="path7523_00000142161611170953631940000012473262916134011046_" cx="168.4744" cy="1690.6836" r="50" gradientTransform="matrix(0.595 0 0 -0.5828 431.3744 1605.4474)" gradientUnits="userSpaceOnUse">
			<stop  offset="0" style="stop-color:#FFFFFF"/>
			<stop  offset="0.54" style="stop-color:#C3C3C3"/>
			<stop  offset="1" style="stop-color:#7C7C7C"/>
		</radialGradient>
		
			<path id="path7523_00000108267889084724876650000010402379702280118198_" style="fill:url(#path7523_00000142161611170953631940000012473262916134011046_);" d="
			M564.34,627.69c0,16.09-13.32,29.14-29.75,29.14s-29.75-13.05-29.75-29.14c0-16.09,13.32-29.14,29.75-29.14
			S564.34,611.59,564.34,627.69z"/>
		<path id="path6419_00000145780177105861812140000006677629777908291480_" class="st2" d="M535.18,607.35l4.76,8.07h-9.52
			L535.18,607.35z"/>
		<path id="path7525_00000084488227760495906740000013272403888408211104_" class="st3" d="M535.18,647.12"/>
		
			<radialGradient id="path7527_00000111158865801814559720000018182040894783884733_" cx="168.4744" cy="1690.6836" r="50" gradientTransform="matrix(0.595 0 0 -0.5828 510.7049 1605.4474)" gradientUnits="userSpaceOnUse">
			<stop  offset="0" style="stop-color:#FFFFFF"/>
			<stop  offset="0.54" style="stop-color:#C3C3C3"/>
			<stop  offset="1" style="stop-color:#7C7C7C"/>
		</radialGradient>
		
			<path id="path7527_00000154396699420482999720000004217103136034502539_" style="fill:url(#path7527_00000111158865801814559720000018182040894783884733_);" d="
			M643.67,627.69c0,16.09-13.32,29.14-29.75,29.14s-29.75-13.05-29.75-29.14c0-16.09,13.32-29.14,29.75-29.14
			S643.67,611.59,643.67,627.69z"/>
		<path id="path6428_00000097476895169882427200000010993298993988043688_" class="st2" d="M614.51,646.67l-4.76-8.07h9.52
			L614.51,646.67z"/>
		<path id="path7529_00000007404421012249426230000000825066777675735455_" class="st3" d="M614.51,641.29"/>
		
			<radialGradient id="path7541_00000057837091129138124810000000104162228059166383_" cx="168.4744" cy="1690.6836" r="50" gradientTransform="matrix(0.595 0 0 -0.5828 193.3828 1683.6401)" gradientUnits="userSpaceOnUse">
			<stop  offset="0" style="stop-color:#FFFFFF"/>
			<stop  offset="0.54" style="stop-color:#C3C3C3"/>
			<stop  offset="1" style="stop-color:#7C7C7C"/>
		</radialGradient>
		
			<path id="path7541_00000157272653068316232070000003525110089846290851_" style="fill:url(#path7541_00000057837091129138124810000000104162228059166383_);" d="
			M326.35,705.88c0,16.09-13.32,29.14-29.75,29.14c-16.43,0-29.75-13.05-29.75-29.14c0-16.09,13.32-29.14,29.75-29.14
			C313.03,676.74,326.35,689.79,326.35,705.88z"/>
		<path id="path6419_00000137108837506274857590000016820714220899331975_" class="st2" d="M297.19,685.54l4.76,8.07h-9.52
			L297.19,685.54z"/>
		<path id="path7543_00000164484789066835142480000001563482060958287035_" class="st3" d="M297.19,725.31"/>
		
			<radialGradient id="path7545_00000003812538879879084090000001518708768824086418_" cx="168.4744" cy="1690.6836" r="50" gradientTransform="matrix(0.595 0 0 -0.5828 272.7133 1683.1544)" gradientUnits="userSpaceOnUse">
			<stop  offset="0" style="stop-color:#FFFFFF"/>
			<stop  offset="0.54" style="stop-color:#C3C3C3"/>
			<stop  offset="1" style="stop-color:#7C7C7C"/>
		</radialGradient>
		
			<path id="path7545_00000083088761684350764510000015530125913434587286_" style="fill:url(#path7545_00000003812538879879084090000001518708768824086418_);" d="
			M405.68,705.4c0,16.09-13.32,29.14-29.75,29.14c-16.43,0-29.75-13.05-29.75-29.14s13.32-29.14,29.75-29.14
			C392.36,676.26,405.68,689.3,405.68,705.4z"/>
		<path id="path6419_00000144299277305307242490000017523257050217191044_" class="st2" d="M376.52,685.06l4.76,8.07h-9.52
			L376.52,685.06z"/>
		<path id="path7547_00000065075811127959044480000008845021933237208991_" class="st3" d="M376.52,724.82"/>
		
			<radialGradient id="path7549_00000166676406855615556440000002906630394304833693_" cx="168.4744" cy="1690.6836" r="50" gradientTransform="matrix(0.595 0 0 -0.5828 352.0439 1683.1544)" gradientUnits="userSpaceOnUse">
			<stop  offset="0" style="stop-color:#FFFFFF"/>
			<stop  offset="0.54" style="stop-color:#C3C3C3"/>
			<stop  offset="1" style="stop-color:#7C7C7C"/>
		</radialGradient>
		
			<path id="path7549_00000109021952253531658210000010207346716095388565_" style="fill:url(#path7549_00000166676406855615556440000002906630394304833693_);" d="
			M485.01,705.4c0,16.09-13.32,29.14-29.75,29.14c-16.43,0-29.75-13.05-29.75-29.14s13.32-29.14,29.75-29.14
			C471.69,676.26,485.01,689.3,485.01,705.4z"/>
		<path id="path6428_00000144331045308920504370000011435708567732262792_" class="st2" d="M455.85,724.37l-4.76-8.07h9.52
			L455.85,724.37z"/>
		<path id="path7551_00000046308005689265182020000003843770414858378119_" class="st3" d="M455.85,718.99"/>
		
			<radialGradient id="path7553_00000032645505456786710050000014617189825141545871_" cx="168.4744" cy="1690.6836" r="50" gradientTransform="matrix(0.595 0 0 -0.5828 431.3744 1683.1544)" gradientUnits="userSpaceOnUse">
			<stop  offset="0" style="stop-color:#FFFFFF"/>
			<stop  offset="0.54" style="stop-color:#C3C3C3"/>
			<stop  offset="1" style="stop-color:#7C7C7C"/>
		</radialGradient>
		
			<path id="path7553_00000125603883796758982120000017751541318511178156_" style="fill:url(#path7553_00000032645505456786710050000014617189825141545871_);" d="
			M564.34,705.4c0,16.09-13.32,29.14-29.75,29.14s-29.75-13.05-29.75-29.14s13.32-29.14,29.75-29.14S564.34,689.3,564.34,705.4z"/>
		<path id="path6419_00000126289659411223892560000018007608716812964273_" class="st2" d="M535.18,685.06l4.76,8.07h-9.52
			L535.18,685.06z"/>
		<path id="path7555_00000108998554271110328680000012787606703179642801_" class="st3" d="M535.18,724.82"/>
		
			<radialGradient id="path7557_00000052806238559987904370000004594456024158428091_" cx="168.4744" cy="1690.6836" r="50" gradientTransform="matrix(0.595 0 0 -0.5828 510.7049 1683.1544)" gradientUnits="userSpaceOnUse">
			<stop  offset="0" style="stop-color:#FFFFFF"/>
			<stop  offset="0.54" style="stop-color:#C3C3C3"/>
			<stop  offset="1" style="stop-color:#7C7C7C"/>
		</radialGradient>
		
			<path id="path7557_00000034090505777393516410000012953310076966291107_" style="fill:url(#path7557_00000052806238559987904370000004594456024158428091_);" d="
			M643.67,705.4c0,16.09-13.32,29.14-29.75,29.14s-29.75-13.05-29.75-29.14s13.32-29.14,29.75-29.14S643.67,689.3,643.67,705.4z"/>
		<path id="path6428_00000027603515479533228070000016706441974293403034_" class="st2" d="M614.51,724.37l-4.76-8.07h9.52
			L614.51,724.37z"/>
		<path id="path7559_00000125584349692021633800000011079682166163993244_" class="st3" d="M614.51,718.99"/>
		
			<radialGradient id="path7571_00000011738885190071872770000011746283707252857278_" cx="168.4744" cy="1690.6836" r="50" gradientTransform="matrix(0.595 0 0 -0.5828 193.3828 1761.3472)" gradientUnits="userSpaceOnUse">
			<stop  offset="0" style="stop-color:#FFFFFF"/>
			<stop  offset="0.54" style="stop-color:#C3C3C3"/>
			<stop  offset="1" style="stop-color:#7C7C7C"/>
		</radialGradient>
		
			<path id="path7571_00000052813512444661797580000015388889654071259793_" style="fill:url(#path7571_00000011738885190071872770000011746283707252857278_);" d="
			M326.35,783.59c0,16.09-13.32,29.14-29.75,29.14c-16.43,0-29.75-13.05-29.75-29.14c0-16.09,13.32-29.14,29.75-29.14
			C313.03,754.45,326.35,767.49,326.35,783.59z"/>
		<path id="path6428_00000103977982062512287090000000855824288574693782_" class="st2" d="M297.19,802.57l-4.76-8.07h9.52
			L297.19,802.57z"/>
		<path id="path7573_00000145759390803365829060000011589270975592612003_" class="st3" d="M297.19,797.19"/>
		
			<radialGradient id="path7575_00000034090321097420737080000014234201602639160466_" cx="168.4744" cy="1690.6836" r="50" gradientTransform="matrix(0.595 0 0 -0.5828 272.7133 1760.8615)" gradientUnits="userSpaceOnUse">
			<stop  offset="0" style="stop-color:#FFFFFF"/>
			<stop  offset="0.54" style="stop-color:#C3C3C3"/>
			<stop  offset="1" style="stop-color:#7C7C7C"/>
		</radialGradient>
		
			<path id="path7575_00000016049679599812241630000011722512324305105547_" style="fill:url(#path7575_00000034090321097420737080000014234201602639160466_);" d="
			M405.68,783.1c0,16.09-13.32,29.14-29.75,29.14c-16.43,0-29.75-13.05-29.75-29.14c0-16.09,13.32-29.14,29.75-29.14
			C392.36,753.96,405.68,767.01,405.68,783.1z"/>
		<path id="path6428_00000086693365770200960780000008104303597943255739_" class="st2" d="M376.52,802.08l-4.76-8.07h9.52
			L376.52,802.08z"/>
		<path id="path7577_00000170970750406552439710000000387994617664553385_" class="st3" d="M376.52,796.7"/>
		
			<radialGradient id="path7579_00000146460695865287961620000001829785304762616741_" cx="168.4744" cy="1690.6836" r="50" gradientTransform="matrix(0.595 0 0 -0.5828 352.0439 1760.8615)" gradientUnits="userSpaceOnUse">
			<stop  offset="0" style="stop-color:#FFFFFF"/>
			<stop  offset="0.54" style="stop-color:#C3C3C3"/>
			<stop  offset="1" style="stop-color:#7C7C7C"/>
		</radialGradient>
		
			<path id="path7579_00000157995136928153727890000009939223657435345817_" style="fill:url(#path7579_00000146460695865287961620000001829785304762616741_);" d="
			M485.01,783.1c0,16.09-13.32,29.14-29.75,29.14c-16.43,0-29.75-13.05-29.75-29.14c0-16.09,13.32-29.14,29.75-29.14
			C471.69,753.96,485.01,767.01,485.01,783.1z"/>
		<path id="path6419_00000116230335406013289900000010102604482282233275_" class="st2" d="M455.85,762.76l4.76,8.07h-9.52
			L455.85,762.76z"/>
		<path id="path7581_00000147908081753267475690000007988157103207301525_" class="st3" d="M455.85,802.53"/>
		
			<radialGradient id="path7583_00000085219614128367622080000002326609402999429301_" cx="168.4744" cy="1690.6836" r="50" gradientTransform="matrix(0.595 0 0 -0.5828 431.3744 1760.8615)" gradientUnits="userSpaceOnUse">
			<stop  offset="0" style="stop-color:#FFFFFF"/>
			<stop  offset="0.54" style="stop-color:#C3C3C3"/>
			<stop  offset="1" style="stop-color:#7C7C7C"/>
		</radialGradient>
		
			<path id="path7583_00000169559167001947294990000003286818595742610098_" style="fill:url(#path7583_00000085219614128367622080000002326609402999429301_);" d="
			M564.34,783.1c0,16.09-13.32,29.14-29.75,29.14s-29.75-13.05-29.75-29.14c0-16.09,13.32-29.14,29.75-29.14
			S564.34,767.01,564.34,783.1z"/>
		<path id="path6419_00000105386242054940766170000006515826843644444295_" class="st2" d="M535.18,762.76l4.76,8.07h-9.52
			L535.18,762.76z"/>
		<path id="path7585_00000155148323250436801860000004903667530188147612_" class="st3" d="M535.18,802.53"/>
		
			<radialGradient id="path7587_00000000204158147441613020000004352656521831839619_" cx="168.4744" cy="1690.6836" r="50" gradientTransform="matrix(0.595 0 0 -0.5828 510.7049 1760.8615)" gradientUnits="userSpaceOnUse">
			<stop  offset="0" style="stop-color:#FFFFFF"/>
			<stop  offset="0.54" style="stop-color:#C3C3C3"/>
			<stop  offset="1" style="stop-color:#7C7C7C"/>
		</radialGradient>
		
			<path id="path7587_00000021805938583924791770000018353688012352249232_" style="fill:url(#path7587_00000000204158147441613020000004352656521831839619_);" d="
			M643.67,783.1c0,16.09-13.32,29.14-29.75,29.14s-29.75-13.05-29.75-29.14c0-16.09,13.32-29.14,29.75-29.14
			S643.67,767.01,643.67,783.1z"/>
		<path id="path6428_00000012448970497629264080000005692931644136016777_" class="st2" d="M614.51,802.08l-4.76-8.07h9.52
			L614.51,802.08z"/>
		<path id="path7589_00000022518603570660158030000014672143518541007513_" class="st3" d="M614.51,796.7"/>
		
			<radialGradient id="path7591_00000099635104486082376210000000933567725186671541_" cx="168.4744" cy="1690.6836" r="50" gradientTransform="matrix(0.595 0 0 -0.5828 193.3828 1839.0542)" gradientUnits="userSpaceOnUse">
			<stop  offset="0" style="stop-color:#FFFFFF"/>
			<stop  offset="0.54" style="stop-color:#C3C3C3"/>
			<stop  offset="1" style="stop-color:#7C7C7C"/>
		</radialGradient>
		
			<path id="path7591_00000069368460856120414290000016935784160713929655_" style="fill:url(#path7591_00000099635104486082376210000000933567725186671541_);" d="
			M326.35,861.3c0,16.09-13.32,29.14-29.75,29.14c-16.43,0-29.75-13.05-29.75-29.14s13.32-29.14,29.75-29.14
			C313.03,832.16,326.35,845.2,326.35,861.3z"/>
		<path id="path6419_00000103233984447572709120000011468789784600834442_" class="st2" d="M297.19,840.96l4.76,8.07h-9.52
			L297.19,840.96z"/>
		<path id="path7593_00000026135570586739960620000015892932565409839271_" class="st3" d="M297.19,880.72"/>
		
			<radialGradient id="path7595_00000103265123957869634560000001466395987337445250_" cx="168.4744" cy="1690.6836" r="50" gradientTransform="matrix(0.595 0 0 -0.5828 272.7133 1838.5685)" gradientUnits="userSpaceOnUse">
			<stop  offset="0" style="stop-color:#FFFFFF"/>
			<stop  offset="0.54" style="stop-color:#C3C3C3"/>
			<stop  offset="1" style="stop-color:#7C7C7C"/>
		</radialGradient>
		
			<path id="path7595_00000132772338022094829910000014817976270422982064_" style="fill:url(#path7595_00000103265123957869634560000001466395987337445250_);" d="
			M405.68,860.81c0,16.09-13.32,29.14-29.75,29.14c-16.43,0-29.75-13.05-29.75-29.14c0-16.09,13.32-29.14,29.75-29.14
			C392.36,831.67,405.68,844.72,405.68,860.81z"/>
		<path id="path6419_00000000215519470083323240000000947851544322674870_" class="st2" d="M376.52,840.47l4.76,8.07h-9.52
			L376.52,840.47z"/>
		<path id="path7597_00000096018812292553839470000007332058720951689900_" class="st3" d="M376.52,880.24"/>
		
			<radialGradient id="path7599_00000004532656513371974420000003670569002976962201_" cx="168.4744" cy="1690.6836" r="50" gradientTransform="matrix(0.595 0 0 -0.5828 352.0439 1838.5685)" gradientUnits="userSpaceOnUse">
			<stop  offset="0" style="stop-color:#FFFFFF"/>
			<stop  offset="0.54" style="stop-color:#C3C3C3"/>
			<stop  offset="1" style="stop-color:#7C7C7C"/>
		</radialGradient>
		
			<path id="path7599_00000065773638328107755130000003362572412363030170_" style="fill:url(#path7599_00000004532656513371974420000003670569002976962201_);" d="
			M485.01,860.81c0,16.09-13.32,29.14-29.75,29.14c-16.43,0-29.75-13.05-29.75-29.14c0-16.09,13.32-29.14,29.75-29.14
			C471.69,831.67,485.01,844.72,485.01,860.81z"/>
		<path id="path6428_00000057843390699866044700000012310493967180329861_" class="st2" d="M455.85,879.79l-4.76-8.07h9.52
			L455.85,879.79z"/>
		<path id="path7601_00000084527859575933009850000004291647325145655472_" class="st3" d="M455.85,874.41"/>
		
			<radialGradient id="path7603_00000055702947359475651940000007159630162351493048_" cx="168.4744" cy="1690.6836" r="50" gradientTransform="matrix(0.595 0 0 -0.5828 431.3744 1838.5685)" gradientUnits="userSpaceOnUse">
			<stop  offset="0" style="stop-color:#FFFFFF"/>
			<stop  offset="0.54" style="stop-color:#C3C3C3"/>
			<stop  offset="1" style="stop-color:#7C7C7C"/>
		</radialGradient>
		
			<path id="path7603_00000041295254687407695070000009289825483891897736_" style="fill:url(#path7603_00000055702947359475651940000007159630162351493048_);" d="
			M564.34,860.81c0,16.09-13.32,29.14-29.75,29.14s-29.75-13.05-29.75-29.14c0-16.09,13.32-29.14,29.75-29.14
			S564.34,844.72,564.34,860.81z"/>
		<path id="path6428_00000124869944689388453600000003827851055294052279_" class="st2" d="M535.18,879.79l-4.76-8.07h9.52
			L535.18,879.79z"/>
		<path id="path7605_00000167364923121884445140000006361226859589822611_" class="st3" d="M535.18,874.41"/>
		
			<radialGradient id="path7607_00000163064283118428909270000007458326554230343590_" cx="168.4744" cy="1690.6836" r="50" gradientTransform="matrix(0.595 0 0 -0.5828 510.7049 1838.5685)" gradientUnits="userSpaceOnUse">
			<stop  offset="0" style="stop-color:#FFFFFF"/>
			<stop  offset="0.54" style="stop-color:#C3C3C3"/>
			<stop  offset="1" style="stop-color:#7C7C7C"/>
		</radialGradient>
		
			<path id="path7607_00000152961454194688110210000017393524836905911734_" style="fill:url(#path7607_00000163064283118428909270000007458326554230343590_);" d="
			M643.67,860.81c0,16.09-13.32,29.14-29.75,29.14s-29.75-13.05-29.75-29.14c0-16.09,13.32-29.14,29.75-29.14
			S643.67,844.72,643.67,860.81z"/>
		<path id="path6419_00000051383126944181491550000014681684506316928667_" class="st2" d="M614.51,840.47l4.76,8.07h-9.52
			L614.51,840.47z"/>
		<path id="path7609_00000026139579249772230040000013443628903473292203_" class="st3" d="M614.51,880.24"/>
	</g>
</g>
<g>
	<g id="graph1_00000085239116951207562900000007570597783049242558_" transform="scale(1 1) rotate(0) translate(4 260)">
		<g id="graph2_00000098913934740173172290000011369580624290704556_">
			<polygon class="st28" points="817.62,237.01 817.62,-89.27 988.6,-89.27 988.6,237.01 			"/>
		</g>
		<g id="graph3_00000138563457909080796720000012248421627903628707_">
			<polygon class="st28" points="1022.79,284.37 1022.79,-136.63 1200.62,-136.63 1200.62,284.37 			"/>
		</g>
		<g id="node2_00000100360353602481851340000004934694430175425155_">
			<ellipse class="st29" cx="903.11" cy="96.67" rx="46.17" ry="32.24"/>
		</g>
		<g id="node3_00000038372052602926999170000000322904353687325827_">
			<ellipse class="st29" cx="903.11" cy="191.4" rx="46.17" ry="32.24"/>
		</g>
		<g id="node4_00000152952609383208688440000010312745682038588801_">
			<ellipse class="st29" cx="903.11" cy="1.95" rx="46.17" ry="32.24"/>
		</g>
		<g id="node6_00000148646966630830847560000015320449896937698435_">
			<ellipse class="st30" cx="1111.71" cy="-45.41" rx="46.17" ry="32.24"/>
		</g>
		<g id="edge16_00000006679919341474647140000012473762061891728815_">
			<path class="st31" d="M1078.65-22.89C1039.6,3.72,975.01,47.72,936,74.27"/>
		</g>
		<g id="edge18_00000010270133433363013410000008853645167557594556_">
			<path class="st31" d="M1087.79-18.24c-40.03,45.43-120.11,136.35-160.38,182.06"/>
		</g>
		<g id="edge20_00000112609615747174610130000010067820413255216275_">
			<path class="st31" d="M1067.47-35.36c-35.39,8.03-84.81,19.26-120.18,27.29"/>
		</g>
		<g id="node7_00000118388993746343996380000012324819447588383413_">
			<ellipse class="st30" cx="1111.71" cy="49.31" rx="46.17" ry="32.24"/>
		</g>
		<g id="edge22_00000078723274046724710950000000260742981078352028_">
			<path class="st31" d="M1067.47,59.36c-35.39,8.03-84.81,19.26-120.18,27.29"/>
		</g>
		<g id="edge24_00000039842578079265736210000013638118910349084553_">
			<path class="st31" d="M1078.65,71.84C1039.59,98.43,975.01,142.42,936,169"/>
		</g>
		<g id="edge26_00000168077232372696400170000016170159375079706557_">
			<path class="st31" d="M1067.47,39.26c-35.39-8.03-84.81-19.26-120.18-27.29"/>
		</g>
		<g id="node8_00000025435815198869978900000006399388520749625751_">
			<ellipse class="st30" cx="1111.71" cy="144.04" rx="46.17" ry="32.24"/>
		</g>
		<g id="edge4_00000004516330195597593150000018163516505220009123_">
			<path class="st31" d="M1067.47,133.99c-35.39-8.03-84.81-19.26-120.18-27.29"/>
		</g>
		<g id="edge6_00000009565630389813626920000007238910585855878077_">
			<path class="st31" d="M1067.47,154.09c-35.39,8.03-84.81,19.26-120.18,27.29"/>
		</g>
		<g id="edge8_00000157992319399158085500000007160282253615456430_">
			<path class="st31" d="M1078.65,121.53C1039.6,94.92,975.01,50.93,936,24.37"/>
		</g>
		<g id="node9_00000036949398470982779340000006790743924154715828_">
			<ellipse class="st30" cx="1111.71" cy="238.76" rx="46.17" ry="32.24"/>
		</g>
		<g id="edge10_00000146461575359239008390000002522754318507475628_">
			<path class="st31" d="M1078.65,216.26c-39.07-26.61-103.65-70.61-142.65-97.16"/>
		</g>
		<g id="edge12_00000137092813696091628850000003928199322753385639_">
			<path class="st31" d="M1067.47,228.71c-35.39-8.03-84.81-19.26-120.18-27.29"/>
		</g>
		<g id="edge14_00000143588578378232124510000013659973818198185351_">
			<path class="st31" d="M1087.79,211.59C1047.76,166.16,967.67,75.24,927.4,29.53"/>
		</g>
	</g>
</g>
<g>
	<g>
		<line class="st32" x1="516.83" y1="249.51" x2="820.75" y2="249.51"/>
		<g>
			<line class="st33" x1="516.83" y1="249.51" x2="808.32" y2="249.51"/>
			<g>
				<polygon class="st34" points="805.8,258.14 820.75,249.51 805.8,240.87 				"/>
			</g>
		</g>
	</g>
	<text transform="matrix(1 0 0 1 618.1002 230.3099)" class="st35 st36 st37">Train</text>
</g>
<g>
	<g>
		<line class="st38" x1="820.75" y1="489" x2="516.83" y2="489"/>
		<g>
			<line class="st33" x1="820.75" y1="489" x2="529.25" y2="489"/>
			<g>
				<polygon class="st34" points="531.78,480.36 516.83,489 531.78,497.64 				"/>
			</g>
		</g>
	</g>
	<text transform="matrix(1 0 0 1 582.8053 471.8401)" class="st35 st36 st37">Generate</text>
</g>
</svg>
